  0
SECTION
  2
HEADER
  9
$ACADVER
  1
AC1024
  9
$ACADMAINTVER
 70
     6
  9
$DWGCODEPAGE
  3
ANSI_1252
  9
$INSBASE
 10
0.0
 20
0.0
 30
0.0
  9
$EXTMIN
 10
1.000000000000000E+20
 20
1.000000000000000E+20
 30
1.000000000000000E+20
  9
$EXTMAX
 10
-1.000000000000000E+20
 20
-1.000000000000000E+20
 30
-1.000000000000000E+20
  9
$LIMMIN
 10
0.0
 20
0.0
  9
$LIMMAX
 10
12.0
 20
9.0
  9
$ORTHOMODE
 70
     0
  9
$REGENMODE
 70
     1
  9
$FILLMODE
 70
     1
  9
$QTEXTMODE
 70
     0
  9
$MIRRTEXT
 70
     1
  9
$LTSCALE
 40
1.0
  9
$ATTMODE
 70
     1
  9
$TEXTSIZE
 40
0.2
  9
$TRACEWID
 40
0.05
  9
$TEXTSTYLE
  7
Standard
  9
$CLAYER
  8
0
  9
$CELTYPE
  6
ByLayer
  9
$CECOLOR
 62
   256
  9
$CELTSCALE
 40
1.0
  9
$DISPSILH
 70
     0
  9
$DIMSCALE
 40
1.0
  9
$DIMASZ
 40
0.18
  9
$DIMEXO
 40
0.0625
  9
$DIMDLI
 40
0.38
  9
$DIMRND
 40
0.0
  9
$DIMDLE
 40
0.0
  9
$DIMEXE
 40
0.18
  9
$DIMTP
 40
0.0
  9
$DIMTM
 40
0.0
  9
$DIMTXT
 40
0.18
  9
$DIMCEN
 40
0.09
  9
$DIMTSZ
 40
0.0
  9
$DIMTOL
 70
     0
  9
$DIMLIM
 70
     0
  9
$DIMTIH
 70
     1
  9
$DIMTOH
 70
     1
  9
$DIMSE1
 70
     0
  9
$DIMSE2
 70
     0
  9
$DIMTAD
 70
     0
  9
$DIMZIN
 70
     0
  9
$DIMBLK
  1

  9
$DIMASO
 70
     1
  9
$DIMSHO
 70
     1
  9
$DIMPOST
  1

  9
$DIMAPOST
  1

  9
$DIMALT
 70
     0
  9
$DIMALTD
 70
     2
  9
$DIMALTF
 40
25.4
  9
$DIMLFAC
 40
1.0
  9
$DIMTOFL
 70
     0
  9
$DIMTVP
 40
0.0
  9
$DIMTIX
 70
     0
  9
$DIMSOXD
 70
     0
  9
$DIMSAH
 70
     0
  9
$DIMBLK1
  1

  9
$DIMBLK2
  1

  9
$DIMSTYLE
  2
Standard
  9
$DIMCLRD
 70
     0
  9
$DIMCLRE
 70
     0
  9
$DIMCLRT
 70
     0
  9
$DIMTFAC
 40
1.0
  9
$DIMGAP
 40
0.09
  9
$DIMJUST
 70
     0
  9
$DIMSD1
 70
     0
  9
$DIMSD2
 70
     0
  9
$DIMTOLJ
 70
     1
  9
$DIMTZIN
 70
     0
  9
$DIMALTZ
 70
     0
  9
$DIMALTTZ
 70
     0
  9
$DIMUPT
 70
     0
  9
$DIMDEC
 70
     4
  9
$DIMTDEC
 70
     4
  9
$DIMALTU
 70
     2
  9
$DIMALTTD
 70
     2
  9
$DIMTXSTY
  7
Standard
  9
$DIMAUNIT
 70
     0
  9
$DIMADEC
 70
     0
  9
$DIMALTRND
 40
0.0
  9
$DIMAZIN
 70
     0
  9
$DIMDSEP
 70
    46
  9
$DIMATFIT
 70
     3
  9
$DIMFRAC
 70
     0
  9
$DIMLDRBLK
  1

  9
$DIMLUNIT
 70
     2
  9
$DIMLWD
 70
    -2
  9
$DIMLWE
 70
    -2
  9
$DIMTMOVE
 70
     0
  9
$DIMFXL
 40
1.0
  9
$DIMFXLON
 70
     0
  9
$DIMJOGANG
 40
0.7853981633974483
  9
$DIMTFILL
 70
     0
  9
$DIMTFILLCLR
 70
     0
  9
$DIMARCSYM
 70
     0
  9
$DIMLTYPE
  6

  9
$DIMLTEX1
  6

  9
$DIMLTEX2
  6

  9
$DIMTXTDIRECTION
 70
     0
  9
$LUNITS
 70
     2
  9
$LUPREC
 70
     4
  9
$SKETCHINC
 40
0.1
  9
$FILLETRAD
 40
0.5
  9
$AUNITS
 70
     0
  9
$AUPREC
 70
     0
  9
$MENU
  1
.
  9
$ELEVATION
 40
0.0
  9
$PELEVATION
 40
0.0
  9
$THICKNESS
 40
0.0
  9
$LIMCHECK
 70
     0
  9
$CHAMFERA
 40
0.5
  9
$CHAMFERB
 40
0.5
  9
$CHAMFERC
 40
1.0
  9
$CHAMFERD
 40
0.0
  9
$SKPOLY
 70
     0
  9
$TDCREATE
 40
2459817.499550197
  9
$TDUCREATE
 40
2459817.624550197
  9
$TDUPDATE
 40
2459817.499550393
  9
$TDUUPDATE
 40
2459817.624550393
  9
$TDINDWG
 40
0.0000000116
  9
$TDUSRTIMER
 40
0.0000000116
  9
$USRTIMER
 70
     1
  9
$ANGBASE
 50
0.0
  9
$ANGDIR
 70
     0
  9
$PDMODE
 70
     0
  9
$PDSIZE
 40
0.0
  9
$PLINEWID
 40
0.0
  9
$SPLFRAME
 70
     0
  9
$SPLINETYPE
 70
     6
  9
$SPLINESEGS
 70
     8
  9
$HANDSEED
  5
80
  9
$SURFTAB1
 70
     6
  9
$SURFTAB2
 70
     6
  9
$SURFTYPE
 70
     6
  9
$SURFU
 70
     6
  9
$SURFV
 70
     6
  9
$UCSBASE
  2

  9
$UCSNAME
  2

  9
$UCSORG
 10
0.0
 20
0.0
 30
0.0
  9
$UCSXDIR
 10
1.0
 20
0.0
 30
0.0
  9
$UCSYDIR
 10
0.0
 20
1.0
 30
0.0
  9
$UCSORTHOREF
  2

  9
$UCSORTHOVIEW
 70
     0
  9
$UCSORGTOP
 10
0.0
 20
0.0
 30
0.0
  9
$UCSORGBOTTOM
 10
0.0
 20
0.0
 30
0.0
  9
$UCSORGLEFT
 10
0.0
 20
0.0
 30
0.0
  9
$UCSORGRIGHT
 10
0.0
 20
0.0
 30
0.0
  9
$UCSORGFRONT
 10
0.0
 20
0.0
 30
0.0
  9
$UCSORGBACK
 10
0.0
 20
0.0
 30
0.0
  9
$PUCSBASE
  2

  9
$PUCSNAME
  2

  9
$PUCSORG
 10
0.0
 20
0.0
 30
0.0
  9
$PUCSXDIR
 10
1.0
 20
0.0
 30
0.0
  9
$PUCSYDIR
 10
0.0
 20
1.0
 30
0.0
  9
$PUCSORTHOREF
  2

  9
$PUCSORTHOVIEW
 70
     0
  9
$PUCSORGTOP
 10
0.0
 20
0.0
 30
0.0
  9
$PUCSORGBOTTOM
 10
0.0
 20
0.0
 30
0.0
  9
$PUCSORGLEFT
 10
0.0
 20
0.0
 30
0.0
  9
$PUCSORGRIGHT
 10
0.0
 20
0.0
 30
0.0
  9
$PUCSORGFRONT
 10
0.0
 20
0.0
 30
0.0
  9
$PUCSORGBACK
 10
0.0
 20
0.0
 30
0.0
  9
$USERI1
 70
     0
  9
$USERI2
 70
     0
  9
$USERI3
 70
     0
  9
$USERI4
 70
     0
  9
$USERI5
 70
     0
  9
$USERR1
 40
0.0
  9
$USERR2
 40
0.0
  9
$USERR3
 40
0.0
  9
$USERR4
 40
0.0
  9
$USERR5
 40
0.0
  9
$WORLDVIEW
 70
     1
  9
$SHADEDGE
 70
     3
  9
$SHADEDIF
 70
    70
  9
$TILEMODE
 70
     1
  9
$MAXACTVP
 70
    64
  9
$PINSBASE
 10
0.0
 20
0.0
 30
0.0
  9
$PLIMCHECK
 70
     0
  9
$PEXTMIN
 10
1.000000000000000E+20
 20
1.000000000000000E+20
 30
1.000000000000000E+20
  9
$PEXTMAX
 10
-1.000000000000000E+20
 20
-1.000000000000000E+20
 30
-1.000000000000000E+20
  9
$PLIMMIN
 10
0.0
 20
0.0
  9
$PLIMMAX
 10
12.0
 20
9.0
  9
$UNITMODE
 70
     0
  9
$VISRETAIN
 70
     1
  9
$PLINEGEN
 70
     0
  9
$PSLTSCALE
 70
     1
  9
$TREEDEPTH
 70
  3020
  9
$CMLSTYLE
  2
Standard
  9
$CMLJUST
 70
     0
  9
$CMLSCALE
 40
1.0
  9
$PROXYGRAPHICS
 70
     1
  9
$MEASUREMENT
 70
     0
  9
$CELWEIGHT
370
    -1
  9
$ENDCAPS
280
     0
  9
$JOINSTYLE
280
     0
  9
$LWDISPLAY
290
     1
  9
$INSUNITS
 70
     1
  9
$HYPERLINKBASE
  1

  9
$STYLESHEET
  1

  9
$XEDIT
290
     1
  9
$CEPSNTYPE
380
     0
  9
$PSTYLEMODE
290
     1
  9
$FINGERPRINTGUID
  2
{B382B03B-6D44-47E9-ABEB-8DCA4C0EB648}
  9
$VERSIONGUID
  2
{FAEB1C32-E019-11D5-929B-00C0DF256EC4}
  9
$EXTNAMES
290
     1
  9
$PSVPSCALE
 40
0.0
  9
$OLESTARTUP
290
     0
  9
$SORTENTS
280
   127
  9
$INDEXCTL
280
     0
  9
$HIDETEXT
280
     1
  9
$XCLIPFRAME
280
     2
  9
$HALOGAP
280
     0
  9
$OBSCOLOR
 70
   257
  9
$OBSLTYPE
280
     0
  9
$INTERSECTIONDISPLAY
280
     0
  9
$INTERSECTIONCOLOR
 70
   257
  9
$DIMASSOC
280
     2
  9
$PROJECTNAME
  1

  9
$CAMERADISPLAY
290
     0
  9
$LENSLENGTH
 40
50.0
  9
$CAMERAHEIGHT
 40
0.0
  9
$STEPSPERSEC
 40
2.0
  9
$STEPSIZE
 40
6.0
  9
$3DDWFPREC
 40
2.0
  9
$PSOLWIDTH
 40
0.25
  9
$PSOLHEIGHT
 40
4.0
  9
$LOFTANG1
 40
1.570796326794897
  9
$LOFTANG2
 40
1.570796326794897
  9
$LOFTMAG1
 40
0.0
  9
$LOFTMAG2
 40
0.0
  9
$LOFTPARAM
 70
     7
  9
$LOFTNORMALS
280
     1
  9
$LATITUDE
 40
37.795
  9
$LONGITUDE
 40
-122.394
  9
$NORTHDIRECTION
 40
0.0
  9
$TIMEZONE
 70
 -8000
  9
$LIGHTGLYPHDISPLAY
280
     1
  9
$TILEMODELIGHTSYNCH
280
     1
  9
$CMATERIAL
347
3C
  9
$SOLIDHIST
280
     1
  9
$SHOWHIST
280
     1
  9
$DWFFRAME
280
     2
  9
$DGNFRAME
280
     2
  9
$REALWORLDSCALE
290
     1
  9
$INTERFERECOLOR
 62
   256
  9
$CSHADOW
280
     0
  9
$SHADOWPLANELOCATION
 40
0.0
  0
ENDSEC
  0
SECTION
  2
CLASSES
  0
CLASS
  1
ACDBDICTIONARYWDFLT
  2
AcDbDictionaryWithDefault
  3
ObjectDBX Classes
 90
        0
 91
        4
280
     0
281
     0
  0
CLASS
  1
VISUALSTYLE
  2
AcDbVisualStyle
  3
ObjectDBX Classes
 90
     4095
 91
        4
280
     0
281
     0
  0
CLASS
  1
MATERIAL
  2
AcDbMaterial
  3
ObjectDBX Classes
 90
     1153
 91
        4
280
     0
281
     0
  0
CLASS
  1
SUN
  2
AcDbSun
  3
SCENEOE
 90
     1024
 91
        4
280
     0
281
     0
  0
ENDSEC
  0
SECTION
  2
TABLES
  0
TABLE
  2
VPORT
  5
8
330
0
100
AcDbSymbolTable
 70
     1
  0
VPORT
  5
29
330
8
100
AcDbSymbolTableRecord
100
AcDbViewportTableRecord
  2
*Active
 70
     0
 10
0.0
 20
0.0
 11
1.0
 21
1.0
 12
0.0
 22
0.0
 13
0.0
 23
0.0
 14
0.5
 24
0.5
 15
0.5
 25
0.5
 16
0.0
 26
0.0
 36
1.0
 17
649.9999998374927
 27
-449.9999998874991
 37
0.0
 40
899.9999997749982
 41
1.444444444444431
 42
50.0
 43
0.0
 44
0.0
 50
0.0
 51
0.0
 71
     0
 72
   100
 73
     1
 74
     3
 75
     0
 76
     0
 77
     0
 78
     0
281
     0
 65
     1
110
0.0
120
0.0
130
0.0
111
1.0
121
0.0
131
0.0
112
0.0
122
1.0
132
0.0
 79
     0
146
0.0
 60
     3
 61
     5
292
     1
282
     1
141
0.0
142
0.0
 63
   250
361
3F
  0
ENDTAB
  0
TABLE
  2
LTYPE
  5
5
330
0
100
AcDbSymbolTable
 70
     1
  0
LTYPE
  5
14
330
5
100
AcDbSymbolTableRecord
100
AcDbLinetypeTableRecord
  2
ByBlock
 70
     0
  3

 72
    65
 73
     0
 40
0.0
  0
LTYPE
  5
15
330
5
100
AcDbSymbolTableRecord
100
AcDbLinetypeTableRecord
  2
ByLayer
 70
     0
  3

 72
    65
 73
     0
 40
0.0
  0
LTYPE
  5
16
330
5
100
AcDbSymbolTableRecord
100
AcDbLinetypeTableRecord
  2
Continuous
 70
     0
  3
Solid line
 72
    65
 73
     0
 40
0.0
  0
ENDTAB
  0
TABLE
  2
LAYER
  5
2
330
0
100
AcDbSymbolTable
 70
     2
  0
LAYER
  5
10
330
2
100
AcDbSymbolTableRecord
100
AcDbLayerTableRecord
  2
0
 70
     0
 62
     7
  6
Continuous
370
    -3
390
F
347
3E
  0
LAYER
  5
40
330
2
100
AcDbSymbolTableRecord
100
AcDbLayerTableRecord
  2
Camada 1
 70
     0
 62
     7
  6
Continuous
370
    -3
390
F
347
3E
  0
ENDTAB
  0
TABLE
  2
STYLE
  5
3
330
0
100
AcDbSymbolTable
 70
     1
  0
STYLE
  5
11
330
3
100
AcDbSymbolTableRecord
100
AcDbTextStyleTableRecord
  2
Standard
 70
     0
 40
0.0
 41
1.0
 50
0.0
 71
     0
 42
0.2
  3
txt
  4

  0
ENDTAB
  0
TABLE
  2
VIEW
  5
6
330
0
100
AcDbSymbolTable
 70
     0
  0
ENDTAB
  0
TABLE
  2
UCS
  5
7
330
0
100
AcDbSymbolTable
 70
     0
  0
ENDTAB
  0
TABLE
  2
APPID
  5
9
330
0
100
AcDbSymbolTable
 70
     1
  0
APPID
  5
12
330
9
100
AcDbSymbolTableRecord
100
AcDbRegAppTableRecord
  2
ACAD
 70
     0
  0
ENDTAB
  0
TABLE
  2
DIMSTYLE
  5
A
330
0
100
AcDbSymbolTable
 70
     1
100
AcDbDimStyleTable
  0
DIMSTYLE
105
27
330
A
100
AcDbSymbolTableRecord
100
AcDbDimStyleTableRecord
  2
Standard
 70
     0
178
     0
340
11
  0
ENDTAB
  0
TABLE
  2
BLOCK_RECORD
  5
1
330
0
100
AcDbSymbolTable
 70
     1
  0
BLOCK_RECORD
  5
1F
330
1
100
AcDbSymbolTableRecord
100
AcDbBlockTableRecord
  2
*Model_Space
340
22
 70
     0
280
     1
281
     0
  0
BLOCK_RECORD
  5
1B
330
1
100
AcDbSymbolTableRecord
100
AcDbBlockTableRecord
  2
*Paper_Space
340
1E
 70
     0
280
     1
281
     0
  0
BLOCK_RECORD
  5
23
330
1
100
AcDbSymbolTableRecord
100
AcDbBlockTableRecord
  2
*Paper_Space0
340
26
 70
     0
280
     1
281
     0
  0
ENDTAB
  0
ENDSEC
  0
SECTION
  2
BLOCKS
  0
BLOCK
  5
20
330
1F
100
AcDbEntity
  8
0
100
AcDbBlockBegin
  2
*Model_Space
 70
     0
 10
0.0
 20
0.0
 30
0.0
  3
*Model_Space
  1

  0
ENDBLK
  5
21
330
1F
100
AcDbEntity
  8
0
100
AcDbBlockEnd
  0
BLOCK
  5
1C
330
1B
100
AcDbEntity
 67
     1
  8
0
100
AcDbBlockBegin
  2
*Paper_Space
 70
     0
 10
0.0
 20
0.0
 30
0.0
  3
*Paper_Space
  1

  0
ENDBLK
  5
1D
330
1B
100
AcDbEntity
 67
     1
  8
0
100
AcDbBlockEnd
  0
BLOCK
  5
24
330
23
100
AcDbEntity
  8
0
100
AcDbBlockBegin
  2
*Paper_Space0
 70
     0
 10
0.0
 20
0.0
 30
0.0
  3
*Paper_Space0
  1

  0
ENDBLK
  5
25
330
23
100
AcDbEntity
  8
0
100
AcDbBlockEnd
  0
ENDSEC
  0
SECTION
  2
ENTITIES
  0
POLYLINE
  5
41
330
1F
100
AcDbEntity
  8
Camada 1
 62
     7
420
 16777215
370
    13
100
AcDb2dPolyline
 66
     1
 10
0.0
 20
0.0
 30
0.0
  0
VERTEX
  5
42
330
41
100
AcDbEntity
  8
Camada 1
 62
     7
420
 16777215
370
    13
100
AcDbVertex
100
AcDb2dVertex
 10
1071.000024146298
 20
0.0
 30
0.0
  0
VERTEX
  5
43
330
41
100
AcDbEntity
  8
Camada 1
 62
     7
420
 16777215
370
    13
100
AcDbVertex
100
AcDb2dVertex
 10
1071.000024146298
 20
-76.00003371987803
 30
0.0
  0
VERTEX
  5
44
330
41
100
AcDbEntity
  8
Camada 1
 62
     7
420
 16777215
370
    13
100
AcDbVertex
100
AcDb2dVertex
 10
1299.999999674985
 20
-76.00003371987803
 30
0.0
  0
VERTEX
  5
45
330
41
100
AcDbEntity
  8
Camada 1
 62
     7
420
 16777215
370
    13
100
AcDbVertex
100
AcDb2dVertex
 10
1299.999999674985
 20
0.0
 30
0.0
  0
VERTEX
  5
46
330
41
100
AcDbEntity
  8
Camada 1
 62
     7
420
 16777215
370
    13
100
AcDbVertex
100
AcDb2dVertex
 10
1071.000024146298
 20
0.0
 30
0.0
  0
SEQEND
  5
47
330
41
100
AcDbEntity
  8
Camada 1
 62
     7
420
 16777215
370
    13
  0
SPLINE
  5
48
330
1F
100
AcDbEntity
  8
Camada 1
 62
     7
420
 16777215
370
    13
100
AcDbSpline
210
0.0
220
0.0
230
1.0
 70
    11
 71
     3
 72
    17
 73
    13
 74
     0
 42
0.0000000001
 43
0.0000000001
 12
1.0
 22
0.0
 32
0.0
 13
1.0
 23
0.0
 33
0.0
 40
0.0
 40
0.0
 40
0.0
 40
0.0
 40
1.0
 40
1.0
 40
1.0
 40
2.0
 40
2.0
 40
2.0
 40
3.0
 40
3.0
 40
3.0
 40
4.0
 40
4.0
 40
4.0
 40
4.0
 10
1185.392352676728
 20
-35.9189531024569
 30
0.0
 10
1186.634998618257
 20
-35.9189531024569
 30
0.0
 10
1187.642344538144
 20
-36.92632055419073
 30
0.0
 10
1187.642344538144
 20
-38.16894496387356
 30
0.0
 10
1187.642344538144
 20
-39.41159090540318
 30
0.0
 10
1186.634998618257
 20
-40.41895835713702
 30
0.0
 10
1185.392352676728
 20
-40.41895835713702
 30
0.0
 10
1184.149706735198
 20
-40.41895835713702
 30
0.0
 10
1183.142360815311
 20
-39.41159090540318
 30
0.0
 10
1183.142360815311
 20
-38.16894496387356
 30
0.0
 10
1183.142360815311
 20
-36.92632055419073
 30
0.0
 10
1184.149706735198
 20
-35.9189531024569
 30
0.0
 10
1185.392352676728
 20
-35.9189531024569
 30
0.0
  0
SPLINE
  5
49
330
1F
100
AcDbEntity
  8
Camada 1
 62
     7
420
 16777215
370
    13
100
AcDbSpline
210
0.0
220
0.0
230
1.0
 70
    11
 71
     3
 72
    29
 73
    25
 74
     0
 42
0.0000000001
 43
0.0000000001
 12
1.0
 22
0.0
 32
0.0
 13
1.0
 23
0.0
 33
0.0
 40
0.0
 40
0.0
 40
0.0
 40
0.0
 40
1.0
 40
1.0
 40
1.0
 40
2.0
 40
2.0
 40
2.0
 40
3.0
 40
3.0
 40
3.0
 40
4.0
 40
4.0
 40
4.0
 40
5.0
 40
5.0
 40
5.0
 40
6.0
 40
6.0
 40
6.0
 40
7.0
 40
7.0
 40
7.0
 40
8.0
 40
8.0
 40
8.0
 40
8.0
 10
1168.959333339473
 20
-3.019174024039043
 30
0.0
 10
1168.959333339473
 20
-2.743028089049486
 30
0.0
 10
1169.183178418627
 20
-2.519183009895378
 30
0.0
 10
1169.459345885464
 20
-2.519183009895378
 30
0.0
 10
1169.459345885464
 20
-2.519183009895378
 30
0.0
 10
1182.45937063536
 20
-2.519183009895378
 30
0.0
 10
1182.45937063536
 20
-2.519183009895378
 30
0.0
 10
1182.735495038503
 20
-2.519183009895378
 30
0.0
 10
1182.959340117657
 20
-2.743028089049486
 30
0.0
 10
1182.959340117657
 20
-3.019174024039043
 30
0.0
 10
1182.959340117657
 20
-3.019174024039043
 30
0.0
 10
1182.959340117657
 20
-16.01917724208896
 30
0.0
 10
1182.959340117657
 20
-16.01917724208896
 30
0.0
 10
1182.959340117657
 20
-16.29532317707852
 30
0.0
 10
1182.735495038503
 20
-16.51916825623262
 30
0.0
 10
1182.45937063536
 20
-16.51916825623262
 30
0.0
 10
1182.45937063536
 20
-16.51916825623262
 30
0.0
 10
1169.459345885464
 20
-16.51916825623262
 30
0.0
 10
1169.459345885464
 20
-16.51916825623262
 30
0.0
 10
1169.183178418627
 20
-16.51916825623262
 30
0.0
 10
1168.959333339473
 20
-16.29532317707852
 30
0.0
 10
1168.959333339473
 20
-16.01917724208896
 30
0.0
 10
1168.959333339473
 20
-16.01917724208896
 30
0.0
 10
1168.959333339473
 20
-3.019174024039043
 30
0.0
 10
1168.959333339473
 20
-3.019174024039043
 30
0.0
  0
SPLINE
  5
4A
330
1F
100
AcDbEntity
  8
Camada 1
 62
     7
420
 16777215
370
    13
100
AcDbSpline
210
0.0
220
0.0
230
1.0
 70
    11
 71
     3
 72
    29
 73
    25
 74
     0
 42
0.0000000001
 43
0.0000000001
 12
1.0
 22
0.0
 32
0.0
 13
1.0
 23
0.0
 33
0.0
 40
0.0
 40
0.0
 40
0.0
 40
0.0
 40
1.0
 40
1.0
 40
1.0
 40
2.0
 40
2.0
 40
2.0
 40
3.0
 40
3.0
 40
3.0
 40
4.0
 40
4.0
 40
4.0
 40
5.0
 40
5.0
 40
5.0
 40
6.0
 40
6.0
 40
6.0
 40
7.0
 40
7.0
 40
7.0
 40
8.0
 40
8.0
 40
8.0
 40
8.0
 10
1168.959333339473
 20
-22.1094385727604
 30
0.0
 10
1168.959333339473
 20
-21.83329263777085
 30
0.0
 10
1169.183178418627
 20
-21.60944755861674
 30
0.0
 10
1169.459345885464
 20
-21.60944755861674
 30
0.0
 10
1169.459345885464
 20
-21.60944755861674
 30
0.0
 10
1182.45937063536
 20
-21.60944755861674
 30
0.0
 10
1182.45937063536
 20
-21.60944755861674
 30
0.0
 10
1182.735495038503
 20
-21.60944755861674
 30
0.0
 10
1182.959340117657
 20
-21.83329263777085
 30
0.0
 10
1182.959340117657
 20
-22.1094385727604
 30
0.0
 10
1182.959340117657
 20
-22.1094385727604
 30
0.0
 10
1182.959340117657
 20
-35.10944179081032
 30
0.0
 10
1182.959340117657
 20
-35.10944179081032
 30
0.0
 10
1182.959340117657
 20
-35.38558772579987
 30
0.0
 10
1182.735495038503
 20
-35.60943280495398
 30
0.0
 10
1182.45937063536
 20
-35.60943280495398
 30
0.0
 10
1182.45937063536
 20
-35.60943280495398
 30
0.0
 10
1169.459345885464
 20
-35.60943280495398
 30
0.0
 10
1169.459345885464
 20
-35.60943280495398
 30
0.0
 10
1169.183178418627
 20
-35.60943280495398
 30
0.0
 10
1168.959333339473
 20
-35.38558772579987
 30
0.0
 10
1168.959333339473
 20
-35.10944179081032
 30
0.0
 10
1168.959333339473
 20
-35.10944179081032
 30
0.0
 10
1168.959333339473
 20
-22.1094385727604
 30
0.0
 10
1168.959333339473
 20
-22.1094385727604
 30
0.0
  0
SPLINE
  5
4B
330
1F
100
AcDbEntity
  8
Camada 1
 62
     7
420
 16777215
370
    13
100
AcDbSpline
210
0.0
220
0.0
230
1.0
 70
    11
 71
     3
 72
    29
 73
    25
 74
     0
 42
0.0000000001
 43
0.0000000001
 12
1.0
 22
0.0
 32
0.0
 13
1.0
 23
0.0
 33
0.0
 40
0.0
 40
0.0
 40
0.0
 40
0.0
 40
1.0
 40
1.0
 40
1.0
 40
2.0
 40
2.0
 40
2.0
 40
3.0
 40
3.0
 40
3.0
 40
4.0
 40
4.0
 40
4.0
 40
5.0
 40
5.0
 40
5.0
 40
6.0
 40
6.0
 40
6.0
 40
7.0
 40
7.0
 40
7.0
 40
8.0
 40
8.0
 40
8.0
 40
8.0
 10
1087.692114664043
 20
-73.3992450106758
 30
0.0
 10
1087.692114664043
 20
-73.67536941381857
 30
0.0
 10
1087.468226521196
 20
-73.89925755666624
 30
0.0
 10
1087.192059054359
 20
-73.89925755666624
 30
0.0
 10
1087.192059054359
 20
-73.89925755666624
 30
0.0
 10
1074.192077368156
 20
-73.89925755666624
 30
0.0
 10
1074.192077368156
 20
-73.89925755666624
 30
0.0
 10
1073.915952965014
 20
-73.89925755666624
 30
0.0
 10
1073.692107885859
 20
-73.67536941381857
 30
0.0
 10
1073.692107885859
 20
-73.3992450106758
 30
0.0
 10
1073.692107885859
 20
-73.3992450106758
 30
0.0
 10
1073.692107885859
 20
-60.39926332447267
 30
0.0
 10
1073.692107885859
 20
-60.39926332447267
 30
0.0
 10
1073.692107885859
 20
-60.1231389213299
 30
0.0
 10
1073.915952965014
 20
-59.89925077848222
 30
0.0
 10
1074.192077368156
 20
-59.89925077848222
 30
0.0
 10
1074.192077368156
 20
-59.89925077848222
 30
0.0
 10
1087.192059054359
 20
-59.89925077848222
 30
0.0
 10
1087.192059054359
 20
-59.89925077848222
 30
0.0
 10
1087.468226521196
 20
-59.89925077848222
 30
0.0
 10
1087.692114664043
 20
-60.1231389213299
 30
0.0
 10
1087.692114664043
 20
-60.39926332447267
 30
0.0
 10
1087.692114664043
 20
-60.39926332447267
 30
0.0
 10
1087.692114664043
 20
-73.3992450106758
 30
0.0
 10
1087.692114664043
 20
-73.3992450106758
 30
0.0
  0
SPLINE
  5
4C
330
1F
100
AcDbEntity
  8
Camada 1
 62
     7
420
 16777215
370
    13
100
AcDbSpline
210
0.0
220
0.0
230
1.0
 70
    11
 71
     3
 72
    29
 73
    25
 74
     0
 42
0.0000000001
 43
0.0000000001
 12
1.0
 22
0.0
 32
0.0
 13
1.0
 23
0.0
 33
0.0
 40
0.0
 40
0.0
 40
0.0
 40
0.0
 40
1.0
 40
1.0
 40
1.0
 40
2.0
 40
2.0
 40
2.0
 40
3.0
 40
3.0
 40
3.0
 40
4.0
 40
4.0
 40
4.0
 40
5.0
 40
5.0
 40
5.0
 40
6.0
 40
6.0
 40
6.0
 40
7.0
 40
7.0
 40
7.0
 40
8.0
 40
8.0
 40
8.0
 40
8.0
 10
1087.692114664043
 20
-54.24571989610654
 30
0.0
 10
1087.692114664043
 20
-54.52184429924932
 30
0.0
 10
1087.468226521196
 20
-54.74568937840343
 30
0.0
 10
1087.192059054359
 20
-54.74568937840343
 30
0.0
 10
1087.192059054359
 20
-54.74568937840343
 30
0.0
 10
1074.192077368156
 20
-54.74568937840343
 30
0.0
 10
1074.192077368156
 20
-54.74568937840343
 30
0.0
 10
1073.915952965014
 20
-54.74568937840343
 30
0.0
 10
1073.692107885859
 20
-54.52184429924932
 30
0.0
 10
1073.692107885859
 20
-54.24571989610654
 30
0.0
 10
1073.692107885859
 20
-54.24571989610654
 30
0.0
 10
1073.692107885859
 20
-41.24573820990341
 30
0.0
 10
1073.692107885859
 20
-41.24573820990341
 30
0.0
 10
1073.692107885859
 20
-40.96957074306707
 30
0.0
 10
1073.915952965014
 20
-40.74572566391296
 30
0.0
 10
1074.192077368156
 20
-40.74572566391296
 30
0.0
 10
1074.192077368156
 20
-40.74572566391296
 30
0.0
 10
1087.192059054359
 20
-40.74572566391296
 30
0.0
 10
1087.192059054359
 20
-40.74572566391296
 30
0.0
 10
1087.468226521196
 20
-40.74572566391296
 30
0.0
 10
1087.692114664043
 20
-40.96957074306707
 30
0.0
 10
1087.692114664043
 20
-41.24573820990341
 30
0.0
 10
1087.692114664043
 20
-41.24573820990341
 30
0.0
 10
1087.692114664043
 20
-54.24571989610654
 30
0.0
 10
1087.692114664043
 20
-54.24571989610654
 30
0.0
  0
SPLINE
  5
4D
330
1F
100
AcDbEntity
  8
Camada 1
 62
     7
420
 16777215
370
    13
100
AcDbSpline
210
0.0
220
0.0
230
1.0
 70
    11
 71
     3
 72
    29
 73
    25
 74
     0
 42
0.0000000001
 43
0.0000000001
 12
1.0
 22
0.0
 32
0.0
 13
1.0
 23
0.0
 33
0.0
 40
0.0
 40
0.0
 40
0.0
 40
0.0
 40
1.0
 40
1.0
 40
1.0
 40
2.0
 40
2.0
 40
2.0
 40
3.0
 40
3.0
 40
3.0
 40
4.0
 40
4.0
 40
4.0
 40
5.0
 40
5.0
 40
5.0
 40
6.0
 40
6.0
 40
6.0
 40
7.0
 40
7.0
 40
7.0
 40
8.0
 40
8.0
 40
8.0
 40
8.0
 10
1087.692114664043
 20
-35.10944179081032
 30
0.0
 10
1087.692114664043
 20
-35.38558772579987
 30
0.0
 10
1087.468226521196
 20
-35.60943280495398
 30
0.0
 10
1087.192059054359
 20
-35.60943280495398
 30
0.0
 10
1087.192059054359
 20
-35.60943280495398
 30
0.0
 10
1074.192077368156
 20
-35.60943280495398
 30
0.0
 10
1074.192077368156
 20
-35.60943280495398
 30
0.0
 10
1073.915952965014
 20
-35.60943280495398
 30
0.0
 10
1073.692107885859
 20
-35.38558772579987
 30
0.0
 10
1073.692107885859
 20
-35.10944179081032
 30
0.0
 10
1073.692107885859
 20
-35.10944179081032
 30
0.0
 10
1073.692107885859
 20
-22.1094385727604
 30
0.0
 10
1073.692107885859
 20
-22.1094385727604
 30
0.0
 10
1073.692107885859
 20
-21.83329263777085
 30
0.0
 10
1073.915952965014
 20
-21.60944755861674
 30
0.0
 10
1074.192077368156
 20
-21.60944755861674
 30
0.0
 10
1074.192077368156
 20
-21.60944755861674
 30
0.0
 10
1087.192059054359
 20
-21.60944755861674
 30
0.0
 10
1087.192059054359
 20
-21.60944755861674
 30
0.0
 10
1087.468226521196
 20
-21.60944755861674
 30
0.0
 10
1087.692114664043
 20
-21.83329263777085
 30
0.0
 10
1087.692114664043
 20
-22.1094385727604
 30
0.0
 10
1087.692114664043
 20
-22.1094385727604
 30
0.0
 10
1087.692114664043
 20
-35.10944179081032
 30
0.0
 10
1087.692114664043
 20
-35.10944179081032
 30
0.0
  0
SPLINE
  5
4E
330
1F
100
AcDbEntity
  8
Camada 1
 62
     7
420
 16777215
370
    13
100
AcDbSpline
210
0.0
220
0.0
230
1.0
 70
    11
 71
     3
 72
    29
 73
    25
 74
     0
 42
0.0000000001
 43
0.0000000001
 12
1.0
 22
0.0
 32
0.0
 13
1.0
 23
0.0
 33
0.0
 40
0.0
 40
0.0
 40
0.0
 40
0.0
 40
1.0
 40
1.0
 40
1.0
 40
2.0
 40
2.0
 40
2.0
 40
3.0
 40
3.0
 40
3.0
 40
4.0
 40
4.0
 40
4.0
 40
5.0
 40
5.0
 40
5.0
 40
6.0
 40
6.0
 40
6.0
 40
7.0
 40
7.0
 40
7.0
 40
8.0
 40
8.0
 40
8.0
 40
8.0
 10
1087.692114664043
 20
-16.01917724208896
 30
0.0
 10
1087.692114664043
 20
-16.29532317707852
 30
0.0
 10
1087.468226521196
 20
-16.51916825623262
 30
0.0
 10
1087.192059054359
 20
-16.51916825623262
 30
0.0
 10
1087.192059054359
 20
-16.51916825623262
 30
0.0
 10
1074.192077368156
 20
-16.51916825623262
 30
0.0
 10
1074.192077368156
 20
-16.51916825623262
 30
0.0
 10
1073.915952965014
 20
-16.51916825623262
 30
0.0
 10
1073.692107885859
 20
-16.29532317707852
 30
0.0
 10
1073.692107885859
 20
-16.01917724208896
 30
0.0
 10
1073.692107885859
 20
-16.01917724208896
 30
0.0
 10
1073.692107885859
 20
-3.019174024039043
 30
0.0
 10
1073.692107885859
 20
-3.019174024039043
 30
0.0
 10
1073.692107885859
 20
-2.743028089049486
 30
0.0
 10
1073.915952965014
 20
-2.519183009895378
 30
0.0
 10
1074.192077368156
 20
-2.519183009895378
 30
0.0
 10
1074.192077368156
 20
-2.519183009895378
 30
0.0
 10
1087.192059054359
 20
-2.519183009895378
 30
0.0
 10
1087.192059054359
 20
-2.519183009895378
 30
0.0
 10
1087.468226521196
 20
-2.519183009895378
 30
0.0
 10
1087.692114664043
 20
-2.743028089049486
 30
0.0
 10
1087.692114664043
 20
-3.019174024039043
 30
0.0
 10
1087.692114664043
 20
-3.019174024039043
 30
0.0
 10
1087.692114664043
 20
-16.01917724208896
 30
0.0
 10
1087.692114664043
 20
-16.01917724208896
 30
0.0
  0
SPLINE
  5
4F
330
1F
100
AcDbEntity
  8
Camada 1
 62
     7
420
 16777215
370
    13
100
AcDbSpline
210
0.0
220
0.0
230
1.0
 70
    11
 71
     3
 72
    17
 73
    13
 74
     0
 42
0.0000000001
 43
0.0000000001
 12
1.0
 22
0.0
 32
0.0
 13
1.0
 23
0.0
 33
0.0
 40
0.0
 40
0.0
 40
0.0
 40
0.0
 40
1.0
 40
1.0
 40
1.0
 40
2.0
 40
2.0
 40
2.0
 40
3.0
 40
3.0
 40
3.0
 40
4.0
 40
4.0
 40
4.0
 40
4.0
 10
1090.202727998919
 20
-59.49483963220746
 30
0.0
 10
1088.96008205739
 20
-59.49483963220746
 30
0.0
 10
1087.952736137503
 20
-58.4874937123204
 30
0.0
 10
1087.952736137503
 20
-57.24484777079078
 30
0.0
 10
1087.952736137503
 20
-56.00220182926117
 30
0.0
 10
1088.96008205739
 20
-54.99485590937412
 30
0.0
 10
1090.202727998919
 20
-54.99485590937412
 30
0.0
 10
1091.445373940449
 20
-54.99485590937412
 30
0.0
 10
1092.452719860336
 20
-56.00220182926117
 30
0.0
 10
1092.452719860336
 20
-57.24484777079078
 30
0.0
 10
1092.452719860336
 20
-58.4874937123204
 30
0.0
 10
1091.445373940449
 20
-59.49483963220746
 30
0.0
 10
1090.202727998919
 20
-59.49483963220746
 30
0.0
  0
SPLINE
  5
50
330
1F
100
AcDbEntity
  8
Camada 1
 62
     7
420
 16777215
370
    13
100
AcDbSpline
210
0.0
220
0.0
230
1.0
 70
    11
 71
     3
 72
    17
 73
    13
 74
     0
 42
0.0000000001
 43
0.0000000001
 12
1.0
 22
0.0
 32
0.0
 13
1.0
 23
0.0
 33
0.0
 40
0.0
 40
0.0
 40
0.0
 40
0.0
 40
1.0
 40
1.0
 40
1.0
 40
2.0
 40
2.0
 40
2.0
 40
3.0
 40
3.0
 40
3.0
 40
4.0
 40
4.0
 40
4.0
 40
4.0
 10
1090.202727998919
 20
-21.3516898207797
 30
0.0
 10
1088.96008205739
 20
-21.3516898207797
 30
0.0
 10
1087.952736137503
 20
-20.34434390089265
 30
0.0
 10
1087.952736137503
 20
-19.10169795936303
 30
0.0
 10
1087.952736137503
 20
-17.85905201783342
 30
0.0
 10
1088.96008205739
 20
-16.85170609794636
 30
0.0
 10
1090.202727998919
 20
-16.85170609794636
 30
0.0
 10
1091.445373940449
 20
-16.85170609794636
 30
0.0
 10
1092.452719860336
 20
-17.85905201783342
 30
0.0
 10
1092.452719860336
 20
-19.10169795936303
 30
0.0
 10
1092.452719860336
 20
-20.34434390089265
 30
0.0
 10
1091.445373940449
 20
-21.3516898207797
 30
0.0
 10
1090.202727998919
 20
-21.3516898207797
 30
0.0
  0
SPLINE
  5
51
330
1F
100
AcDbEntity
  8
Camada 1
 62
     7
420
 16777215
370
    13
100
AcDbSpline
210
0.0
220
0.0
230
1.0
 70
    11
 71
     3
 72
    29
 73
    25
 74
     0
 42
0.0000000001
 43
0.0000000001
 12
1.0
 22
0.0
 32
0.0
 13
1.0
 23
0.0
 33
0.0
 40
0.0
 40
0.0
 40
0.0
 40
0.0
 40
1.0
 40
1.0
 40
1.0
 40
2.0
 40
2.0
 40
2.0
 40
3.0
 40
3.0
 40
3.0
 40
4.0
 40
4.0
 40
4.0
 40
5.0
 40
5.0
 40
5.0
 40
6.0
 40
6.0
 40
6.0
 40
7.0
 40
7.0
 40
7.0
 40
8.0
 40
8.0
 40
8.0
 40
8.0
 10
1106.828371237493
 20
-73.3992450106758
 30
0.0
 10
1106.828371237493
 20
-73.67536941381857
 30
0.0
 10
1106.604483094645
 20
-73.89925755666624
 30
0.0
 10
1106.328358691502
 20
-73.89925755666624
 30
0.0
 10
1106.328358691502
 20
-73.89925755666624
 30
0.0
 10
1093.328377005299
 20
-73.89925755666624
 30
0.0
 10
1093.328377005299
 20
-73.89925755666624
 30
0.0
 10
1093.052209538463
 20
-73.89925755666624
 30
0.0
 10
1092.828364459309
 20
-73.67536941381857
 30
0.0
 10
1092.828364459309
 20
-73.3992450106758
 30
0.0
 10
1092.828364459309
 20
-73.3992450106758
 30
0.0
 10
1092.828364459309
 20
-60.39926332447267
 30
0.0
 10
1092.828364459309
 20
-60.39926332447267
 30
0.0
 10
1092.828364459309
 20
-60.1231389213299
 30
0.0
 10
1093.052209538463
 20
-59.89925077848222
 30
0.0
 10
1093.328377005299
 20
-59.89925077848222
 30
0.0
 10
1093.328377005299
 20
-59.89925077848222
 30
0.0
 10
1106.328358691502
 20
-59.89925077848222
 30
0.0
 10
1106.328358691502
 20
-59.89925077848222
 30
0.0
 10
1106.604483094645
 20
-59.89925077848222
 30
0.0
 10
1106.828371237493
 20
-60.1231389213299
 30
0.0
 10
1106.828371237493
 20
-60.39926332447267
 30
0.0
 10
1106.828371237493
 20
-60.39926332447267
 30
0.0
 10
1106.828371237493
 20
-73.3992450106758
 30
0.0
 10
1106.828371237493
 20
-73.3992450106758
 30
0.0
  0
SPLINE
  5
52
330
1F
100
AcDbEntity
  8
Camada 1
 62
     7
420
 16777215
370
    13
100
AcDbSpline
210
0.0
220
0.0
230
1.0
 70
    11
 71
     3
 72
    29
 73
    25
 74
     0
 42
0.0000000001
 43
0.0000000001
 12
1.0
 22
0.0
 32
0.0
 13
1.0
 23
0.0
 33
0.0
 40
0.0
 40
0.0
 40
0.0
 40
0.0
 40
1.0
 40
1.0
 40
1.0
 40
2.0
 40
2.0
 40
2.0
 40
3.0
 40
3.0
 40
3.0
 40
4.0
 40
4.0
 40
4.0
 40
5.0
 40
5.0
 40
5.0
 40
6.0
 40
6.0
 40
6.0
 40
7.0
 40
7.0
 40
7.0
 40
8.0
 40
8.0
 40
8.0
 40
8.0
 10
1106.828371237493
 20
-54.24571989610654
 30
0.0
 10
1106.828371237493
 20
-54.52184429924932
 30
0.0
 10
1106.604483094645
 20
-54.74568937840343
 30
0.0
 10
1106.328358691502
 20
-54.74568937840343
 30
0.0
 10
1106.328358691502
 20
-54.74568937840343
 30
0.0
 10
1093.328377005299
 20
-54.74568937840343
 30
0.0
 10
1093.328377005299
 20
-54.74568937840343
 30
0.0
 10
1093.052209538463
 20
-54.74568937840343
 30
0.0
 10
1092.828364459309
 20
-54.52184429924932
 30
0.0
 10
1092.828364459309
 20
-54.24571989610654
 30
0.0
 10
1092.828364459309
 20
-54.24571989610654
 30
0.0
 10
1092.828364459309
 20
-41.24573820990341
 30
0.0
 10
1092.828364459309
 20
-41.24573820990341
 30
0.0
 10
1092.828364459309
 20
-40.96957074306707
 30
0.0
 10
1093.052209538463
 20
-40.74572566391296
 30
0.0
 10
1093.328377005299
 20
-40.74572566391296
 30
0.0
 10
1093.328377005299
 20
-40.74572566391296
 30
0.0
 10
1106.328358691502
 20
-40.74572566391296
 30
0.0
 10
1106.328358691502
 20
-40.74572566391296
 30
0.0
 10
1106.604483094645
 20
-40.74572566391296
 30
0.0
 10
1106.828371237493
 20
-40.96957074306707
 30
0.0
 10
1106.828371237493
 20
-41.24573820990341
 30
0.0
 10
1106.828371237493
 20
-41.24573820990341
 30
0.0
 10
1106.828371237493
 20
-54.24571989610654
 30
0.0
 10
1106.828371237493
 20
-54.24571989610654
 30
0.0
  0
SPLINE
  5
53
330
1F
100
AcDbEntity
  8
Camada 1
 62
     7
420
 16777215
370
    13
100
AcDbSpline
210
0.0
220
0.0
230
1.0
 70
    11
 71
     3
 72
    29
 73
    25
 74
     0
 42
0.0000000001
 43
0.0000000001
 12
1.0
 22
0.0
 32
0.0
 13
1.0
 23
0.0
 33
0.0
 40
0.0
 40
0.0
 40
0.0
 40
0.0
 40
1.0
 40
1.0
 40
1.0
 40
2.0
 40
2.0
 40
2.0
 40
3.0
 40
3.0
 40
3.0
 40
4.0
 40
4.0
 40
4.0
 40
5.0
 40
5.0
 40
5.0
 40
6.0
 40
6.0
 40
6.0
 40
7.0
 40
7.0
 40
7.0
 40
8.0
 40
8.0
 40
8.0
 40
8.0
 10
1106.828371237493
 20
-35.10944179081032
 30
0.0
 10
1106.828371237493
 20
-35.38558772579987
 30
0.0
 10
1106.604483094645
 20
-35.60943280495398
 30
0.0
 10
1106.328358691502
 20
-35.60943280495398
 30
0.0
 10
1106.328358691502
 20
-35.60943280495398
 30
0.0
 10
1093.328377005299
 20
-35.60943280495398
 30
0.0
 10
1093.328377005299
 20
-35.60943280495398
 30
0.0
 10
1093.052209538463
 20
-35.60943280495398
 30
0.0
 10
1092.828364459309
 20
-35.38558772579987
 30
0.0
 10
1092.828364459309
 20
-35.10944179081032
 30
0.0
 10
1092.828364459309
 20
-35.10944179081032
 30
0.0
 10
1092.828364459309
 20
-22.1094385727604
 30
0.0
 10
1092.828364459309
 20
-22.1094385727604
 30
0.0
 10
1092.828364459309
 20
-21.83329263777085
 30
0.0
 10
1093.052209538463
 20
-21.60944755861674
 30
0.0
 10
1093.328377005299
 20
-21.60944755861674
 30
0.0
 10
1093.328377005299
 20
-21.60944755861674
 30
0.0
 10
1106.328358691502
 20
-21.60944755861674
 30
0.0
 10
1106.328358691502
 20
-21.60944755861674
 30
0.0
 10
1106.604483094645
 20
-21.60944755861674
 30
0.0
 10
1106.828371237493
 20
-21.83329263777085
 30
0.0
 10
1106.828371237493
 20
-22.1094385727604
 30
0.0
 10
1106.828371237493
 20
-22.1094385727604
 30
0.0
 10
1106.828371237493
 20
-35.10944179081032
 30
0.0
 10
1106.828371237493
 20
-35.10944179081032
 30
0.0
  0
SPLINE
  5
54
330
1F
100
AcDbEntity
  8
Camada 1
 62
     7
420
 16777215
370
    13
100
AcDbSpline
210
0.0
220
0.0
230
1.0
 70
    11
 71
     3
 72
    29
 73
    25
 74
     0
 42
0.0000000001
 43
0.0000000001
 12
1.0
 22
0.0
 32
0.0
 13
1.0
 23
0.0
 33
0.0
 40
0.0
 40
0.0
 40
0.0
 40
0.0
 40
1.0
 40
1.0
 40
1.0
 40
2.0
 40
2.0
 40
2.0
 40
3.0
 40
3.0
 40
3.0
 40
4.0
 40
4.0
 40
4.0
 40
5.0
 40
5.0
 40
5.0
 40
6.0
 40
6.0
 40
6.0
 40
7.0
 40
7.0
 40
7.0
 40
8.0
 40
8.0
 40
8.0
 40
8.0
 10
1106.828371237493
 20
-16.01917724208896
 30
0.0
 10
1106.828371237493
 20
-16.29532317707852
 30
0.0
 10
1106.604483094645
 20
-16.51916825623262
 30
0.0
 10
1106.328358691502
 20
-16.51916825623262
 30
0.0
 10
1106.328358691502
 20
-16.51916825623262
 30
0.0
 10
1093.328377005299
 20
-16.51916825623262
 30
0.0
 10
1093.328377005299
 20
-16.51916825623262
 30
0.0
 10
1093.052209538463
 20
-16.51916825623262
 30
0.0
 10
1092.828364459309
 20
-16.29532317707852
 30
0.0
 10
1092.828364459309
 20
-16.01917724208896
 30
0.0
 10
1092.828364459309
 20
-16.01917724208896
 30
0.0
 10
1092.828364459309
 20
-3.019174024039043
 30
0.0
 10
1092.828364459309
 20
-3.019174024039043
 30
0.0
 10
1092.828364459309
 20
-2.743028089049486
 30
0.0
 10
1093.052209538463
 20
-2.519183009895378
 30
0.0
 10
1093.328377005299
 20
-2.519183009895378
 30
0.0
 10
1093.328377005299
 20
-2.519183009895378
 30
0.0
 10
1106.328358691502
 20
-2.519183009895378
 30
0.0
 10
1106.328358691502
 20
-2.519183009895378
 30
0.0
 10
1106.604483094645
 20
-2.519183009895378
 30
0.0
 10
1106.828371237493
 20
-2.743028089049486
 30
0.0
 10
1106.828371237493
 20
-3.019174024039043
 30
0.0
 10
1106.828371237493
 20
-3.019174024039043
 30
0.0
 10
1106.828371237493
 20
-16.01917724208896
 30
0.0
 10
1106.828371237493
 20
-16.01917724208896
 30
0.0
  0
SPLINE
  5
55
330
1F
100
AcDbEntity
  8
Camada 1
 62
     7
420
 16777215
370
    13
100
AcDbSpline
210
0.0
220
0.0
230
1.0
 70
    11
 71
     3
 72
    29
 73
    25
 74
     0
 42
0.0000000001
 43
0.0000000001
 12
1.0
 22
0.0
 32
0.0
 13
1.0
 23
0.0
 33
0.0
 40
0.0
 40
0.0
 40
0.0
 40
0.0
 40
1.0
 40
1.0
 40
1.0
 40
2.0
 40
2.0
 40
2.0
 40
3.0
 40
3.0
 40
3.0
 40
4.0
 40
4.0
 40
4.0
 40
5.0
 40
5.0
 40
5.0
 40
6.0
 40
6.0
 40
6.0
 40
7.0
 40
7.0
 40
7.0
 40
8.0
 40
8.0
 40
8.0
 40
8.0
 10
1125.843877214184
 20
-73.3992450106758
 30
0.0
 10
1125.843877214184
 20
-73.67536941381857
 30
0.0
 10
1125.619989071337
 20
-73.89925755666624
 30
0.0
 10
1125.3438216045
 20
-73.89925755666624
 30
0.0
 10
1125.3438216045
 20
-73.89925755666624
 30
0.0
 10
1112.343839918297
 20
-73.89925755666624
 30
0.0
 10
1112.343839918297
 20
-73.89925755666624
 30
0.0
 10
1112.067715515154
 20
-73.89925755666624
 30
0.0
 10
1111.843870436
 20
-73.67536941381857
 30
0.0
 10
1111.843870436
 20
-73.3992450106758
 30
0.0
 10
1111.843870436
 20
-73.3992450106758
 30
0.0
 10
1111.843870436
 20
-60.39926332447267
 30
0.0
 10
1111.843870436
 20
-60.39926332447267
 30
0.0
 10
1111.843870436
 20
-60.1231389213299
 30
0.0
 10
1112.067715515154
 20
-59.89925077848222
 30
0.0
 10
1112.343839918297
 20
-59.89925077848222
 30
0.0
 10
1112.343839918297
 20
-59.89925077848222
 30
0.0
 10
1125.3438216045
 20
-59.89925077848222
 30
0.0
 10
1125.3438216045
 20
-59.89925077848222
 30
0.0
 10
1125.619989071337
 20
-59.89925077848222
 30
0.0
 10
1125.843877214184
 20
-60.1231389213299
 30
0.0
 10
1125.843877214184
 20
-60.39926332447267
 30
0.0
 10
1125.843877214184
 20
-60.39926332447267
 30
0.0
 10
1125.843877214184
 20
-73.3992450106758
 30
0.0
 10
1125.843877214184
 20
-73.3992450106758
 30
0.0
  0
SPLINE
  5
56
330
1F
100
AcDbEntity
  8
Camada 1
 62
     7
420
 16777215
370
    13
100
AcDbSpline
210
0.0
220
0.0
230
1.0
 70
    11
 71
     3
 72
    29
 73
    25
 74
     0
 42
0.0000000001
 43
0.0000000001
 12
1.0
 22
0.0
 32
0.0
 13
1.0
 23
0.0
 33
0.0
 40
0.0
 40
0.0
 40
0.0
 40
0.0
 40
1.0
 40
1.0
 40
1.0
 40
2.0
 40
2.0
 40
2.0
 40
3.0
 40
3.0
 40
3.0
 40
4.0
 40
4.0
 40
4.0
 40
5.0
 40
5.0
 40
5.0
 40
6.0
 40
6.0
 40
6.0
 40
7.0
 40
7.0
 40
7.0
 40
8.0
 40
8.0
 40
8.0
 40
8.0
 10
1125.843877214184
 20
-54.24571989610654
 30
0.0
 10
1125.843877214184
 20
-54.52184429924932
 30
0.0
 10
1125.619989071337
 20
-54.74568937840343
 30
0.0
 10
1125.3438216045
 20
-54.74568937840343
 30
0.0
 10
1125.3438216045
 20
-54.74568937840343
 30
0.0
 10
1112.343839918297
 20
-54.74568937840343
 30
0.0
 10
1112.343839918297
 20
-54.74568937840343
 30
0.0
 10
1112.067715515154
 20
-54.74568937840343
 30
0.0
 10
1111.843870436
 20
-54.52184429924932
 30
0.0
 10
1111.843870436
 20
-54.24571989610654
 30
0.0
 10
1111.843870436
 20
-54.24571989610654
 30
0.0
 10
1111.843870436
 20
-41.24573820990341
 30
0.0
 10
1111.843870436
 20
-41.24573820990341
 30
0.0
 10
1111.843870436
 20
-40.96957074306707
 30
0.0
 10
1112.067715515154
 20
-40.74572566391296
 30
0.0
 10
1112.343839918297
 20
-40.74572566391296
 30
0.0
 10
1112.343839918297
 20
-40.74572566391296
 30
0.0
 10
1125.3438216045
 20
-40.74572566391296
 30
0.0
 10
1125.3438216045
 20
-40.74572566391296
 30
0.0
 10
1125.619989071337
 20
-40.74572566391296
 30
0.0
 10
1125.843877214184
 20
-40.96957074306707
 30
0.0
 10
1125.843877214184
 20
-41.24573820990341
 30
0.0
 10
1125.843877214184
 20
-41.24573820990341
 30
0.0
 10
1125.843877214184
 20
-54.24571989610654
 30
0.0
 10
1125.843877214184
 20
-54.24571989610654
 30
0.0
  0
SPLINE
  5
57
330
1F
100
AcDbEntity
  8
Camada 1
 62
     7
420
 16777215
370
    13
100
AcDbSpline
210
0.0
220
0.0
230
1.0
 70
    11
 71
     3
 72
    29
 73
    25
 74
     0
 42
0.0000000001
 43
0.0000000001
 12
1.0
 22
0.0
 32
0.0
 13
1.0
 23
0.0
 33
0.0
 40
0.0
 40
0.0
 40
0.0
 40
0.0
 40
1.0
 40
1.0
 40
1.0
 40
2.0
 40
2.0
 40
2.0
 40
3.0
 40
3.0
 40
3.0
 40
4.0
 40
4.0
 40
4.0
 40
5.0
 40
5.0
 40
5.0
 40
6.0
 40
6.0
 40
6.0
 40
7.0
 40
7.0
 40
7.0
 40
8.0
 40
8.0
 40
8.0
 40
8.0
 10
1125.843877214184
 20
-35.10944179081032
 30
0.0
 10
1125.843877214184
 20
-35.38558772579987
 30
0.0
 10
1125.619989071337
 20
-35.60943280495398
 30
0.0
 10
1125.3438216045
 20
-35.60943280495398
 30
0.0
 10
1125.3438216045
 20
-35.60943280495398
 30
0.0
 10
1112.343839918297
 20
-35.60943280495398
 30
0.0
 10
1112.343839918297
 20
-35.60943280495398
 30
0.0
 10
1112.067715515154
 20
-35.60943280495398
 30
0.0
 10
1111.843870436
 20
-35.38558772579987
 30
0.0
 10
1111.843870436
 20
-35.10944179081032
 30
0.0
 10
1111.843870436
 20
-35.10944179081032
 30
0.0
 10
1111.843870436
 20
-22.1094385727604
 30
0.0
 10
1111.843870436
 20
-22.1094385727604
 30
0.0
 10
1111.843870436
 20
-21.83329263777085
 30
0.0
 10
1112.067715515154
 20
-21.60944755861674
 30
0.0
 10
1112.343839918297
 20
-21.60944755861674
 30
0.0
 10
1112.343839918297
 20
-21.60944755861674
 30
0.0
 10
1125.3438216045
 20
-21.60944755861674
 30
0.0
 10
1125.3438216045
 20
-21.60944755861674
 30
0.0
 10
1125.619989071337
 20
-21.60944755861674
 30
0.0
 10
1125.843877214184
 20
-21.83329263777085
 30
0.0
 10
1125.843877214184
 20
-22.1094385727604
 30
0.0
 10
1125.843877214184
 20
-22.1094385727604
 30
0.0
 10
1125.843877214184
 20
-35.10944179081032
 30
0.0
 10
1125.843877214184
 20
-35.10944179081032
 30
0.0
  0
SPLINE
  5
58
330
1F
100
AcDbEntity
  8
Camada 1
 62
     7
420
 16777215
370
    13
100
AcDbSpline
210
0.0
220
0.0
230
1.0
 70
    11
 71
     3
 72
    29
 73
    25
 74
     0
 42
0.0000000001
 43
0.0000000001
 12
1.0
 22
0.0
 32
0.0
 13
1.0
 23
0.0
 33
0.0
 40
0.0
 40
0.0
 40
0.0
 40
0.0
 40
1.0
 40
1.0
 40
1.0
 40
2.0
 40
2.0
 40
2.0
 40
3.0
 40
3.0
 40
3.0
 40
4.0
 40
4.0
 40
4.0
 40
5.0
 40
5.0
 40
5.0
 40
6.0
 40
6.0
 40
6.0
 40
7.0
 40
7.0
 40
7.0
 40
8.0
 40
8.0
 40
8.0
 40
8.0
 10
1125.843877214184
 20
-16.01917724208896
 30
0.0
 10
1125.843877214184
 20
-16.29532317707852
 30
0.0
 10
1125.619989071337
 20
-16.51916825623262
 30
0.0
 10
1125.3438216045
 20
-16.51916825623262
 30
0.0
 10
1125.3438216045
 20
-16.51916825623262
 30
0.0
 10
1112.343839918297
 20
-16.51916825623262
 30
0.0
 10
1112.343839918297
 20
-16.51916825623262
 30
0.0
 10
1112.067715515154
 20
-16.51916825623262
 30
0.0
 10
1111.843870436
 20
-16.29532317707852
 30
0.0
 10
1111.843870436
 20
-16.01917724208896
 30
0.0
 10
1111.843870436
 20
-16.01917724208896
 30
0.0
 10
1111.843870436
 20
-3.019174024039043
 30
0.0
 10
1111.843870436
 20
-3.019174024039043
 30
0.0
 10
1111.843870436
 20
-2.743028089049486
 30
0.0
 10
1112.067715515154
 20
-2.519183009895378
 30
0.0
 10
1112.343839918297
 20
-2.519183009895378
 30
0.0
 10
1112.343839918297
 20
-2.519183009895378
 30
0.0
 10
1125.3438216045
 20
-2.519183009895378
 30
0.0
 10
1125.3438216045
 20
-2.519183009895378
 30
0.0
 10
1125.619989071337
 20
-2.519183009895378
 30
0.0
 10
1125.843877214184
 20
-2.743028089049486
 30
0.0
 10
1125.843877214184
 20
-3.019174024039043
 30
0.0
 10
1125.843877214184
 20
-3.019174024039043
 30
0.0
 10
1125.843877214184
 20
-16.01917724208896
 30
0.0
 10
1125.843877214184
 20
-16.01917724208896
 30
0.0
  0
SPLINE
  5
59
330
1F
100
AcDbEntity
  8
Camada 1
 62
     7
420
 16777215
370
    13
100
AcDbSpline
210
0.0
220
0.0
230
1.0
 70
    11
 71
     3
 72
    29
 73
    25
 74
     0
 42
0.0000000001
 43
0.0000000001
 12
1.0
 22
0.0
 32
0.0
 13
1.0
 23
0.0
 33
0.0
 40
0.0
 40
0.0
 40
0.0
 40
0.0
 40
1.0
 40
1.0
 40
1.0
 40
2.0
 40
2.0
 40
2.0
 40
3.0
 40
3.0
 40
3.0
 40
4.0
 40
4.0
 40
4.0
 40
5.0
 40
5.0
 40
5.0
 40
6.0
 40
6.0
 40
6.0
 40
7.0
 40
7.0
 40
7.0
 40
8.0
 40
8.0
 40
8.0
 40
8.0
 10
1144.928371227968
 20
-73.3992450106758
 30
0.0
 10
1144.928371227968
 20
-73.67536941381857
 30
0.0
 10
1144.70448308512
 20
-73.89925755666624
 30
0.0
 10
1144.428358681977
 20
-73.89925755666624
 30
0.0
 10
1144.428358681977
 20
-73.89925755666624
 30
0.0
 10
1131.428376995774
 20
-73.89925755666624
 30
0.0
 10
1131.428376995774
 20
-73.89925755666624
 30
0.0
 10
1131.152209528938
 20
-73.89925755666624
 30
0.0
 10
1130.928364449784
 20
-73.67536941381857
 30
0.0
 10
1130.928364449784
 20
-73.3992450106758
 30
0.0
 10
1130.928364449784
 20
-73.3992450106758
 30
0.0
 10
1130.928364449784
 20
-60.39926332447267
 30
0.0
 10
1130.928364449784
 20
-60.39926332447267
 30
0.0
 10
1130.928364449784
 20
-60.1231389213299
 30
0.0
 10
1131.152209528938
 20
-59.89925077848222
 30
0.0
 10
1131.428376995774
 20
-59.89925077848222
 30
0.0
 10
1131.428376995774
 20
-59.89925077848222
 30
0.0
 10
1144.428358681977
 20
-59.89925077848222
 30
0.0
 10
1144.428358681977
 20
-59.89925077848222
 30
0.0
 10
1144.70448308512
 20
-59.89925077848222
 30
0.0
 10
1144.928371227968
 20
-60.1231389213299
 30
0.0
 10
1144.928371227968
 20
-60.39926332447267
 30
0.0
 10
1144.928371227968
 20
-60.39926332447267
 30
0.0
 10
1144.928371227968
 20
-73.3992450106758
 30
0.0
 10
1144.928371227968
 20
-73.3992450106758
 30
0.0
  0
SPLINE
  5
5A
330
1F
100
AcDbEntity
  8
Camada 1
 62
     7
420
 16777215
370
    13
100
AcDbSpline
210
0.0
220
0.0
230
1.0
 70
    11
 71
     3
 72
    29
 73
    25
 74
     0
 42
0.0000000001
 43
0.0000000001
 12
1.0
 22
0.0
 32
0.0
 13
1.0
 23
0.0
 33
0.0
 40
0.0
 40
0.0
 40
0.0
 40
0.0
 40
1.0
 40
1.0
 40
1.0
 40
2.0
 40
2.0
 40
2.0
 40
3.0
 40
3.0
 40
3.0
 40
4.0
 40
4.0
 40
4.0
 40
5.0
 40
5.0
 40
5.0
 40
6.0
 40
6.0
 40
6.0
 40
7.0
 40
7.0
 40
7.0
 40
8.0
 40
8.0
 40
8.0
 40
8.0
 10
1144.928371227968
 20
-54.24571989610654
 30
0.0
 10
1144.928371227968
 20
-54.52184429924932
 30
0.0
 10
1144.70448308512
 20
-54.74568937840343
 30
0.0
 10
1144.428358681977
 20
-54.74568937840343
 30
0.0
 10
1144.428358681977
 20
-54.74568937840343
 30
0.0
 10
1131.428376995774
 20
-54.74568937840343
 30
0.0
 10
1131.428376995774
 20
-54.74568937840343
 30
0.0
 10
1131.152209528938
 20
-54.74568937840343
 30
0.0
 10
1130.928364449784
 20
-54.52184429924932
 30
0.0
 10
1130.928364449784
 20
-54.24571989610654
 30
0.0
 10
1130.928364449784
 20
-54.24571989610654
 30
0.0
 10
1130.928364449784
 20
-41.24573820990341
 30
0.0
 10
1130.928364449784
 20
-41.24573820990341
 30
0.0
 10
1130.928364449784
 20
-40.96957074306707
 30
0.0
 10
1131.152209528938
 20
-40.74572566391296
 30
0.0
 10
1131.428376995774
 20
-40.74572566391296
 30
0.0
 10
1131.428376995774
 20
-40.74572566391296
 30
0.0
 10
1144.428358681977
 20
-40.74572566391296
 30
0.0
 10
1144.428358681977
 20
-40.74572566391296
 30
0.0
 10
1144.70448308512
 20
-40.74572566391296
 30
0.0
 10
1144.928371227968
 20
-40.96957074306707
 30
0.0
 10
1144.928371227968
 20
-41.24573820990341
 30
0.0
 10
1144.928371227968
 20
-41.24573820990341
 30
0.0
 10
1144.928371227968
 20
-54.24571989610654
 30
0.0
 10
1144.928371227968
 20
-54.24571989610654
 30
0.0
  0
SPLINE
  5
5B
330
1F
100
AcDbEntity
  8
Camada 1
 62
     7
420
 16777215
370
    13
100
AcDbSpline
210
0.0
220
0.0
230
1.0
 70
    11
 71
     3
 72
    29
 73
    25
 74
     0
 42
0.0000000001
 43
0.0000000001
 12
1.0
 22
0.0
 32
0.0
 13
1.0
 23
0.0
 33
0.0
 40
0.0
 40
0.0
 40
0.0
 40
0.0
 40
1.0
 40
1.0
 40
1.0
 40
2.0
 40
2.0
 40
2.0
 40
3.0
 40
3.0
 40
3.0
 40
4.0
 40
4.0
 40
4.0
 40
5.0
 40
5.0
 40
5.0
 40
6.0
 40
6.0
 40
6.0
 40
7.0
 40
7.0
 40
7.0
 40
8.0
 40
8.0
 40
8.0
 40
8.0
 10
1144.928371227968
 20
-35.10944179081032
 30
0.0
 10
1144.928371227968
 20
-35.38558772579987
 30
0.0
 10
1144.70448308512
 20
-35.60943280495398
 30
0.0
 10
1144.428358681977
 20
-35.60943280495398
 30
0.0
 10
1144.428358681977
 20
-35.60943280495398
 30
0.0
 10
1131.428376995774
 20
-35.60943280495398
 30
0.0
 10
1131.428376995774
 20
-35.60943280495398
 30
0.0
 10
1131.152209528938
 20
-35.60943280495398
 30
0.0
 10
1130.928364449784
 20
-35.38558772579987
 30
0.0
 10
1130.928364449784
 20
-35.10944179081032
 30
0.0
 10
1130.928364449784
 20
-35.10944179081032
 30
0.0
 10
1130.928364449784
 20
-22.1094385727604
 30
0.0
 10
1130.928364449784
 20
-22.1094385727604
 30
0.0
 10
1130.928364449784
 20
-21.83329263777085
 30
0.0
 10
1131.152209528938
 20
-21.60944755861674
 30
0.0
 10
1131.428376995774
 20
-21.60944755861674
 30
0.0
 10
1131.428376995774
 20
-21.60944755861674
 30
0.0
 10
1144.428358681977
 20
-21.60944755861674
 30
0.0
 10
1144.428358681977
 20
-21.60944755861674
 30
0.0
 10
1144.70448308512
 20
-21.60944755861674
 30
0.0
 10
1144.928371227968
 20
-21.83329263777085
 30
0.0
 10
1144.928371227968
 20
-22.1094385727604
 30
0.0
 10
1144.928371227968
 20
-22.1094385727604
 30
0.0
 10
1144.928371227968
 20
-35.10944179081032
 30
0.0
 10
1144.928371227968
 20
-35.10944179081032
 30
0.0
  0
SPLINE
  5
5C
330
1F
100
AcDbEntity
  8
Camada 1
 62
     7
420
 16777215
370
    13
100
AcDbSpline
210
0.0
220
0.0
230
1.0
 70
    11
 71
     3
 72
    29
 73
    25
 74
     0
 42
0.0000000001
 43
0.0000000001
 12
1.0
 22
0.0
 32
0.0
 13
1.0
 23
0.0
 33
0.0
 40
0.0
 40
0.0
 40
0.0
 40
0.0
 40
1.0
 40
1.0
 40
1.0
 40
2.0
 40
2.0
 40
2.0
 40
3.0
 40
3.0
 40
3.0
 40
4.0
 40
4.0
 40
4.0
 40
5.0
 40
5.0
 40
5.0
 40
6.0
 40
6.0
 40
6.0
 40
7.0
 40
7.0
 40
7.0
 40
8.0
 40
8.0
 40
8.0
 40
8.0
 10
1144.928371227968
 20
-16.01917724208896
 30
0.0
 10
1144.928371227968
 20
-16.29532317707852
 30
0.0
 10
1144.70448308512
 20
-16.51916825623262
 30
0.0
 10
1144.428358681977
 20
-16.51916825623262
 30
0.0
 10
1144.428358681977
 20
-16.51916825623262
 30
0.0
 10
1131.428376995774
 20
-16.51916825623262
 30
0.0
 10
1131.428376995774
 20
-16.51916825623262
 30
0.0
 10
1131.152209528938
 20
-16.51916825623262
 30
0.0
 10
1130.928364449784
 20
-16.29532317707852
 30
0.0
 10
1130.928364449784
 20
-16.01917724208896
 30
0.0
 10
1130.928364449784
 20
-16.01917724208896
 30
0.0
 10
1130.928364449784
 20
-3.019174024039043
 30
0.0
 10
1130.928364449784
 20
-3.019174024039043
 30
0.0
 10
1130.928364449784
 20
-2.743028089049486
 30
0.0
 10
1131.152209528938
 20
-2.519183009895378
 30
0.0
 10
1131.428376995774
 20
-2.519183009895378
 30
0.0
 10
1131.428376995774
 20
-2.519183009895378
 30
0.0
 10
1144.428358681977
 20
-2.519183009895378
 30
0.0
 10
1144.428358681977
 20
-2.519183009895378
 30
0.0
 10
1144.70448308512
 20
-2.519183009895378
 30
0.0
 10
1144.928371227968
 20
-2.743028089049486
 30
0.0
 10
1144.928371227968
 20
-3.019174024039043
 30
0.0
 10
1144.928371227968
 20
-3.019174024039043
 30
0.0
 10
1144.928371227968
 20
-16.01917724208896
 30
0.0
 10
1144.928371227968
 20
-16.01917724208896
 30
0.0
  0
SPLINE
  5
5D
330
1F
100
AcDbEntity
  8
Camada 1
 62
     7
420
 16777215
370
    13
100
AcDbSpline
210
0.0
220
0.0
230
1.0
 70
    11
 71
     3
 72
    29
 73
    25
 74
     0
 42
0.0000000001
 43
0.0000000001
 12
1.0
 22
0.0
 32
0.0
 13
1.0
 23
0.0
 33
0.0
 40
0.0
 40
0.0
 40
0.0
 40
0.0
 40
1.0
 40
1.0
 40
1.0
 40
2.0
 40
2.0
 40
2.0
 40
3.0
 40
3.0
 40
3.0
 40
4.0
 40
4.0
 40
4.0
 40
5.0
 40
5.0
 40
5.0
 40
6.0
 40
6.0
 40
6.0
 40
7.0
 40
7.0
 40
7.0
 40
8.0
 40
8.0
 40
8.0
 40
8.0
 10
1163.90934012242
 20
-73.3992450106758
 30
0.0
 10
1163.90934012242
 20
-73.67536941381857
 30
0.0
 10
1163.685495043266
 20
-73.89925755666624
 30
0.0
 10
1163.409370640123
 20
-73.89925755666624
 30
0.0
 10
1163.409370640123
 20
-73.89925755666624
 30
0.0
 10
1150.409345890226
 20
-73.89925755666624
 30
0.0
 10
1150.409345890226
 20
-73.89925755666624
 30
0.0
 10
1150.13317842339
 20
-73.89925755666624
 30
0.0
 10
1149.909333344236
 20
-73.67536941381857
 30
0.0
 10
1149.909333344236
 20
-73.3992450106758
 30
0.0
 10
1149.909333344236
 20
-73.3992450106758
 30
0.0
 10
1149.909333344236
 20
-60.39926332447267
 30
0.0
 10
1149.909333344236
 20
-60.39926332447267
 30
0.0
 10
1149.909333344236
 20
-60.1231389213299
 30
0.0
 10
1150.13317842339
 20
-59.89925077848222
 30
0.0
 10
1150.409345890226
 20
-59.89925077848222
 30
0.0
 10
1150.409345890226
 20
-59.89925077848222
 30
0.0
 10
1163.409370640123
 20
-59.89925077848222
 30
0.0
 10
1163.409370640123
 20
-59.89925077848222
 30
0.0
 10
1163.685495043266
 20
-59.89925077848222
 30
0.0
 10
1163.90934012242
 20
-60.1231389213299
 30
0.0
 10
1163.90934012242
 20
-60.39926332447267
 30
0.0
 10
1163.90934012242
 20
-60.39926332447267
 30
0.0
 10
1163.90934012242
 20
-73.3992450106758
 30
0.0
 10
1163.90934012242
 20
-73.3992450106758
 30
0.0
  0
SPLINE
  5
5E
330
1F
100
AcDbEntity
  8
Camada 1
 62
     7
420
 16777215
370
    13
100
AcDbSpline
210
0.0
220
0.0
230
1.0
 70
    11
 71
     3
 72
    29
 73
    25
 74
     0
 42
0.0000000001
 43
0.0000000001
 12
1.0
 22
0.0
 32
0.0
 13
1.0
 23
0.0
 33
0.0
 40
0.0
 40
0.0
 40
0.0
 40
0.0
 40
1.0
 40
1.0
 40
1.0
 40
2.0
 40
2.0
 40
2.0
 40
3.0
 40
3.0
 40
3.0
 40
4.0
 40
4.0
 40
4.0
 40
5.0
 40
5.0
 40
5.0
 40
6.0
 40
6.0
 40
6.0
 40
7.0
 40
7.0
 40
7.0
 40
8.0
 40
8.0
 40
8.0
 40
8.0
 10
1163.90934012242
 20
-54.24571989610654
 30
0.0
 10
1163.90934012242
 20
-54.52184429924932
 30
0.0
 10
1163.685495043266
 20
-54.74568937840343
 30
0.0
 10
1163.409370640123
 20
-54.74568937840343
 30
0.0
 10
1163.409370640123
 20
-54.74568937840343
 30
0.0
 10
1150.409345890226
 20
-54.74568937840343
 30
0.0
 10
1150.409345890226
 20
-54.74568937840343
 30
0.0
 10
1150.13317842339
 20
-54.74568937840343
 30
0.0
 10
1149.909333344236
 20
-54.52184429924932
 30
0.0
 10
1149.909333344236
 20
-54.24571989610654
 30
0.0
 10
1149.909333344236
 20
-54.24571989610654
 30
0.0
 10
1149.909333344236
 20
-41.24573820990341
 30
0.0
 10
1149.909333344236
 20
-41.24573820990341
 30
0.0
 10
1149.909333344236
 20
-40.96957074306707
 30
0.0
 10
1150.13317842339
 20
-40.74572566391296
 30
0.0
 10
1150.409345890226
 20
-40.74572566391296
 30
0.0
 10
1150.409345890226
 20
-40.74572566391296
 30
0.0
 10
1163.409370640123
 20
-40.74572566391296
 30
0.0
 10
1163.409370640123
 20
-40.74572566391296
 30
0.0
 10
1163.685495043266
 20
-40.74572566391296
 30
0.0
 10
1163.90934012242
 20
-40.96957074306707
 30
0.0
 10
1163.90934012242
 20
-41.24573820990341
 30
0.0
 10
1163.90934012242
 20
-41.24573820990341
 30
0.0
 10
1163.90934012242
 20
-54.24571989610654
 30
0.0
 10
1163.90934012242
 20
-54.24571989610654
 30
0.0
  0
SPLINE
  5
5F
330
1F
100
AcDbEntity
  8
Camada 1
 62
     7
420
 16777215
370
    13
100
AcDbSpline
210
0.0
220
0.0
230
1.0
 70
    11
 71
     3
 72
    29
 73
    25
 74
     0
 42
0.0000000001
 43
0.0000000001
 12
1.0
 22
0.0
 32
0.0
 13
1.0
 23
0.0
 33
0.0
 40
0.0
 40
0.0
 40
0.0
 40
0.0
 40
1.0
 40
1.0
 40
1.0
 40
2.0
 40
2.0
 40
2.0
 40
3.0
 40
3.0
 40
3.0
 40
4.0
 40
4.0
 40
4.0
 40
5.0
 40
5.0
 40
5.0
 40
6.0
 40
6.0
 40
6.0
 40
7.0
 40
7.0
 40
7.0
 40
8.0
 40
8.0
 40
8.0
 40
8.0
 10
1163.90934012242
 20
-35.10944179081032
 30
0.0
 10
1163.90934012242
 20
-35.38558772579987
 30
0.0
 10
1163.685495043266
 20
-35.60943280495398
 30
0.0
 10
1163.409370640123
 20
-35.60943280495398
 30
0.0
 10
1163.409370640123
 20
-35.60943280495398
 30
0.0
 10
1150.409345890226
 20
-35.60943280495398
 30
0.0
 10
1150.409345890226
 20
-35.60943280495398
 30
0.0
 10
1150.13317842339
 20
-35.60943280495398
 30
0.0
 10
1149.909333344236
 20
-35.38558772579987
 30
0.0
 10
1149.909333344236
 20
-35.10944179081032
 30
0.0
 10
1149.909333344236
 20
-35.10944179081032
 30
0.0
 10
1149.909333344236
 20
-22.1094385727604
 30
0.0
 10
1149.909333344236
 20
-22.1094385727604
 30
0.0
 10
1149.909333344236
 20
-21.83329263777085
 30
0.0
 10
1150.13317842339
 20
-21.60944755861674
 30
0.0
 10
1150.409345890226
 20
-21.60944755861674
 30
0.0
 10
1150.409345890226
 20
-21.60944755861674
 30
0.0
 10
1163.409370640123
 20
-21.60944755861674
 30
0.0
 10
1163.409370640123
 20
-21.60944755861674
 30
0.0
 10
1163.685495043266
 20
-21.60944755861674
 30
0.0
 10
1163.90934012242
 20
-21.83329263777085
 30
0.0
 10
1163.90934012242
 20
-22.1094385727604
 30
0.0
 10
1163.90934012242
 20
-22.1094385727604
 30
0.0
 10
1163.90934012242
 20
-35.10944179081032
 30
0.0
 10
1163.90934012242
 20
-35.10944179081032
 30
0.0
  0
SPLINE
  5
60
330
1F
100
AcDbEntity
  8
Camada 1
 62
     7
420
 16777215
370
    13
100
AcDbSpline
210
0.0
220
0.0
230
1.0
 70
    11
 71
     3
 72
    29
 73
    25
 74
     0
 42
0.0000000001
 43
0.0000000001
 12
1.0
 22
0.0
 32
0.0
 13
1.0
 23
0.0
 33
0.0
 40
0.0
 40
0.0
 40
0.0
 40
0.0
 40
1.0
 40
1.0
 40
1.0
 40
2.0
 40
2.0
 40
2.0
 40
3.0
 40
3.0
 40
3.0
 40
4.0
 40
4.0
 40
4.0
 40
5.0
 40
5.0
 40
5.0
 40
6.0
 40
6.0
 40
6.0
 40
7.0
 40
7.0
 40
7.0
 40
8.0
 40
8.0
 40
8.0
 40
8.0
 10
1163.90934012242
 20
-16.01917724208896
 30
0.0
 10
1163.90934012242
 20
-16.29532317707852
 30
0.0
 10
1163.685495043266
 20
-16.51916825623262
 30
0.0
 10
1163.409370640123
 20
-16.51916825623262
 30
0.0
 10
1163.409370640123
 20
-16.51916825623262
 30
0.0
 10
1150.409345890226
 20
-16.51916825623262
 30
0.0
 10
1150.409345890226
 20
-16.51916825623262
 30
0.0
 10
1150.13317842339
 20
-16.51916825623262
 30
0.0
 10
1149.909333344236
 20
-16.29532317707852
 30
0.0
 10
1149.909333344236
 20
-16.01917724208896
 30
0.0
 10
1149.909333344236
 20
-16.01917724208896
 30
0.0
 10
1149.909333344236
 20
-3.019174024039043
 30
0.0
 10
1149.909333344236
 20
-3.019174024039043
 30
0.0
 10
1149.909333344236
 20
-2.743028089049486
 30
0.0
 10
1150.13317842339
 20
-2.519183009895378
 30
0.0
 10
1150.409345890226
 20
-2.519183009895378
 30
0.0
 10
1150.409345890226
 20
-2.519183009895378
 30
0.0
 10
1163.409370640123
 20
-2.519183009895378
 30
0.0
 10
1163.409370640123
 20
-2.519183009895378
 30
0.0
 10
1163.685495043266
 20
-2.519183009895378
 30
0.0
 10
1163.90934012242
 20
-2.743028089049486
 30
0.0
 10
1163.90934012242
 20
-3.019174024039043
 30
0.0
 10
1163.90934012242
 20
-3.019174024039043
 30
0.0
 10
1163.90934012242
 20
-16.01917724208896
 30
0.0
 10
1163.90934012242
 20
-16.01917724208896
 30
0.0
  0
SPLINE
  5
61
330
1F
100
AcDbEntity
  8
Camada 1
 62
     7
420
 16777215
370
    13
100
AcDbSpline
210
0.0
220
0.0
230
1.0
 70
    11
 71
     3
 72
    29
 73
    25
 74
     0
 42
0.0000000001
 43
0.0000000001
 12
1.0
 22
0.0
 32
0.0
 13
1.0
 23
0.0
 33
0.0
 40
0.0
 40
0.0
 40
0.0
 40
0.0
 40
1.0
 40
1.0
 40
1.0
 40
2.0
 40
2.0
 40
2.0
 40
3.0
 40
3.0
 40
3.0
 40
4.0
 40
4.0
 40
4.0
 40
5.0
 40
5.0
 40
5.0
 40
6.0
 40
6.0
 40
6.0
 40
7.0
 40
7.0
 40
7.0
 40
8.0
 40
8.0
 40
8.0
 40
8.0
 10
1168.959333339473
 20
-54.24571989610654
 30
0.0
 10
1168.959333339473
 20
-54.24571989610654
 30
0.0
 10
1168.959333339473
 20
-41.24573820990341
 30
0.0
 10
1168.959333339473
 20
-41.24573820990341
 30
0.0
 10
1168.959333339473
 20
-40.96957074306707
 30
0.0
 10
1169.183178418627
 20
-40.74572566391296
 30
0.0
 10
1169.459345885464
 20
-40.74572566391296
 30
0.0
 10
1169.459345885464
 20
-40.74572566391296
 30
0.0
 10
1182.45937063536
 20
-40.74572566391296
 30
0.0
 10
1182.45937063536
 20
-40.74572566391296
 30
0.0
 10
1182.735495038503
 20
-40.74572566391296
 30
0.0
 10
1182.959340117657
 20
-40.96957074306707
 30
0.0
 10
1182.959340117657
 20
-41.24573820990341
 30
0.0
 10
1182.959340117657
 20
-41.24573820990341
 30
0.0
 10
1182.959340117657
 20
-54.24571989610654
 30
0.0
 10
1182.959340117657
 20
-54.24571989610654
 30
0.0
 10
1182.959340117657
 20
-54.52184429924932
 30
0.0
 10
1182.735495038503
 20
-54.74568937840343
 30
0.0
 10
1182.45937063536
 20
-54.74568937840343
 30
0.0
 10
1182.45937063536
 20
-54.74568937840343
 30
0.0
 10
1169.459345885464
 20
-54.74568937840343
 30
0.0
 10
1169.459345885464
 20
-54.74568937840343
 30
0.0
 10
1169.183178418627
 20
-54.74568937840343
 30
0.0
 10
1168.959333339473
 20
-54.52184429924932
 30
0.0
 10
1168.959333339473
 20
-54.24571989610654
 30
0.0
  0
SPLINE
  5
62
330
1F
100
AcDbEntity
  8
Camada 1
 62
     7
420
 16777215
370
    13
100
AcDbSpline
210
0.0
220
0.0
230
1.0
 70
    11
 71
     3
 72
    29
 73
    25
 74
     0
 42
0.0000000001
 43
0.0000000001
 12
1.0
 22
0.0
 32
0.0
 13
1.0
 23
0.0
 33
0.0
 40
0.0
 40
0.0
 40
0.0
 40
0.0
 40
1.0
 40
1.0
 40
1.0
 40
2.0
 40
2.0
 40
2.0
 40
3.0
 40
3.0
 40
3.0
 40
4.0
 40
4.0
 40
4.0
 40
5.0
 40
5.0
 40
5.0
 40
6.0
 40
6.0
 40
6.0
 40
7.0
 40
7.0
 40
7.0
 40
8.0
 40
8.0
 40
8.0
 40
8.0
 10
1176.853769643923
 20
-73.3992450106758
 30
0.0
 10
1176.853769643923
 20
-73.67536941381857
 30
0.0
 10
1176.629924564769
 20
-73.89925755666624
 30
0.0
 10
1176.353800161626
 20
-73.89925755666624
 30
0.0
 10
1176.353800161626
 20
-73.89925755666624
 30
0.0
 10
1170.831225971384
 20
-73.89925755666624
 30
0.0
 10
1170.831225971384
 20
-73.89925755666624
 30
0.0
 10
1170.555101568241
 20
-73.89925755666624
 30
0.0
 10
1170.331213425393
 20
-73.67536941381857
 30
0.0
 10
1170.331213425393
 20
-73.3992450106758
 30
0.0
 10
1170.331213425393
 20
-73.3992450106758
 30
0.0
 10
1170.331213425393
 20
-58.80603585362532
 30
0.0
 10
1170.331213425393
 20
-58.80603585362532
 30
0.0
 10
1170.331213425393
 20
-58.52991145048254
 30
0.0
 10
1170.555101568241
 20
-58.30602330763487
 30
0.0
 10
1170.831225971384
 20
-58.30602330763487
 30
0.0
 10
1170.831225971384
 20
-58.30602330763487
 30
0.0
 10
1176.353800161626
 20
-58.30602330763487
 30
0.0
 10
1176.353800161626
 20
-58.30602330763487
 30
0.0
 10
1176.629924564769
 20
-58.30602330763487
 30
0.0
 10
1176.853769643923
 20
-58.52991145048254
 30
0.0
 10
1176.853769643923
 20
-58.80603585362532
 30
0.0
 10
1176.853769643923
 20
-58.80603585362532
 30
0.0
 10
1176.853769643923
 20
-73.3992450106758
 30
0.0
 10
1176.853769643923
 20
-73.3992450106758
 30
0.0
  0
SPLINE
  5
63
330
1F
100
AcDbEntity
  8
Camada 1
 62
     7
420
 16777215
370
    13
100
AcDbSpline
210
0.0
220
0.0
230
1.0
 70
    11
 71
     3
 72
    29
 73
    25
 74
     0
 42
0.0000000001
 43
0.0000000001
 12
1.0
 22
0.0
 32
0.0
 13
1.0
 23
0.0
 33
0.0
 40
0.0
 40
0.0
 40
0.0
 40
0.0
 40
1.0
 40
1.0
 40
1.0
 40
2.0
 40
2.0
 40
2.0
 40
3.0
 40
3.0
 40
3.0
 40
4.0
 40
4.0
 40
4.0
 40
5.0
 40
5.0
 40
5.0
 40
6.0
 40
6.0
 40
6.0
 40
7.0
 40
7.0
 40
7.0
 40
8.0
 40
8.0
 40
8.0
 40
8.0
 10
1192.375130588393
 20
-73.3992450106758
 30
0.0
 10
1192.375130588393
 20
-73.67536941381857
 30
0.0
 10
1192.151242445546
 20
-73.89925755666624
 30
0.0
 10
1191.87507497871
 20
-73.89925755666624
 30
0.0
 10
1191.87507497871
 20
-73.89925755666624
 30
0.0
 10
1178.875093292506
 20
-73.89925755666624
 30
0.0
 10
1178.875093292506
 20
-73.89925755666624
 30
0.0
 10
1178.598968889364
 20
-73.89925755666624
 30
0.0
 10
1178.37512381021
 20
-73.67536941381857
 30
0.0
 10
1178.37512381021
 20
-73.3992450106758
 30
0.0
 10
1178.37512381021
 20
-73.3992450106758
 30
0.0
 10
1178.37512381021
 20
-60.39926332447267
 30
0.0
 10
1178.37512381021
 20
-60.39926332447267
 30
0.0
 10
1178.37512381021
 20
-60.1231389213299
 30
0.0
 10
1178.598968889364
 20
-59.89925077848222
 30
0.0
 10
1178.875093292506
 20
-59.89925077848222
 30
0.0
 10
1178.875093292506
 20
-59.89925077848222
 30
0.0
 10
1191.87507497871
 20
-59.89925077848222
 30
0.0
 10
1191.87507497871
 20
-59.89925077848222
 30
0.0
 10
1192.151242445546
 20
-59.89925077848222
 30
0.0
 10
1192.375130588393
 20
-60.1231389213299
 30
0.0
 10
1192.375130588393
 20
-60.39926332447267
 30
0.0
 10
1192.375130588393
 20
-60.39926332447267
 30
0.0
 10
1192.375130588393
 20
-73.3992450106758
 30
0.0
 10
1192.375130588393
 20
-73.3992450106758
 30
0.0
  0
SPLINE
  5
64
330
1F
100
AcDbEntity
  8
Camada 1
 62
     7
420
 16777215
370
    13
100
AcDbSpline
210
0.0
220
0.0
230
1.0
 70
    11
 71
     3
 72
    29
 73
    25
 74
     0
 42
0.0000000001
 43
0.0000000001
 12
1.0
 22
0.0
 32
0.0
 13
1.0
 23
0.0
 33
0.0
 40
0.0
 40
0.0
 40
0.0
 40
0.0
 40
1.0
 40
1.0
 40
1.0
 40
2.0
 40
2.0
 40
2.0
 40
3.0
 40
3.0
 40
3.0
 40
4.0
 40
4.0
 40
4.0
 40
5.0
 40
5.0
 40
5.0
 40
6.0
 40
6.0
 40
6.0
 40
7.0
 40
7.0
 40
7.0
 40
8.0
 40
8.0
 40
8.0
 40
8.0
 10
1200.766952553526
 20
-73.3992450106758
 30
0.0
 10
1200.766952553526
 20
-73.67536941381857
 30
0.0
 10
1200.543107474372
 20
-73.89925755666624
 30
0.0
 10
1200.266940007536
 20
-73.89925755666624
 30
0.0
 10
1200.266940007536
 20
-73.89925755666624
 30
0.0
 10
1194.744408880987
 20
-73.89925755666624
 30
0.0
 10
1194.744408880987
 20
-73.89925755666624
 30
0.0
 10
1194.468284477844
 20
-73.89925755666624
 30
0.0
 10
1194.244396334997
 20
-73.67536941381857
 30
0.0
 10
1194.244396334997
 20
-73.3992450106758
 30
0.0
 10
1194.244396334997
 20
-73.3992450106758
 30
0.0
 10
1194.244396334997
 20
-58.80603585362532
 30
0.0
 10
1194.244396334997
 20
-58.80603585362532
 30
0.0
 10
1194.244396334997
 20
-58.52991145048254
 30
0.0
 10
1194.468284477844
 20
-58.30602330763487
 30
0.0
 10
1194.744408880987
 20
-58.30602330763487
 30
0.0
 10
1194.744408880987
 20
-58.30602330763487
 30
0.0
 10
1200.266940007536
 20
-58.30602330763487
 30
0.0
 10
1200.266940007536
 20
-58.30602330763487
 30
0.0
 10
1200.543107474372
 20
-58.30602330763487
 30
0.0
 10
1200.766952553526
 20
-58.52991145048254
 30
0.0
 10
1200.766952553526
 20
-58.80603585362532
 30
0.0
 10
1200.766952553526
 20
-58.80603585362532
 30
0.0
 10
1200.766952553526
 20
-73.3992450106758
 30
0.0
 10
1200.766952553526
 20
-73.3992450106758
 30
0.0
  0
SPLINE
  5
65
330
1F
100
AcDbEntity
  8
Camada 1
 62
     7
420
 16777215
370
    13
100
AcDbSpline
210
0.0
220
0.0
230
1.0
 70
    11
 71
     3
 72
    29
 73
    25
 74
     0
 42
0.0000000001
 43
0.0000000001
 12
1.0
 22
0.0
 32
0.0
 13
1.0
 23
0.0
 33
0.0
 40
0.0
 40
0.0
 40
0.0
 40
0.0
 40
1.0
 40
1.0
 40
1.0
 40
2.0
 40
2.0
 40
2.0
 40
3.0
 40
3.0
 40
3.0
 40
4.0
 40
4.0
 40
4.0
 40
5.0
 40
5.0
 40
5.0
 40
6.0
 40
6.0
 40
6.0
 40
7.0
 40
7.0
 40
7.0
 40
8.0
 40
8.0
 40
8.0
 40
8.0
 10
1201.940309012109
 20
-54.24571989610654
 30
0.0
 10
1201.940309012109
 20
-54.52184429924932
 30
0.0
 10
1201.716463932955
 20
-54.74568937840343
 30
0.0
 10
1201.440296466119
 20
-54.74568937840343
 30
0.0
 10
1201.440296466119
 20
-54.74568937840343
 30
0.0
 10
1188.440314779915
 20
-54.74568937840343
 30
0.0
 10
1188.440314779915
 20
-54.74568937840343
 30
0.0
 10
1188.164190376773
 20
-54.74568937840343
 30
0.0
 10
1187.940345297618
 20
-54.52184429924932
 30
0.0
 10
1187.940345297618
 20
-54.24571989610654
 30
0.0
 10
1187.940345297618
 20
-54.24571989610654
 30
0.0
 10
1187.940345297618
 20
-41.24573820990341
 30
0.0
 10
1187.940345297618
 20
-41.24573820990341
 30
0.0
 10
1187.940345297618
 20
-40.96957074306707
 30
0.0
 10
1188.164190376773
 20
-40.74572566391296
 30
0.0
 10
1188.440314779915
 20
-40.74572566391296
 30
0.0
 10
1188.440314779915
 20
-40.74572566391296
 30
0.0
 10
1201.440296466119
 20
-40.74572566391296
 30
0.0
 10
1201.440296466119
 20
-40.74572566391296
 30
0.0
 10
1201.716463932955
 20
-40.74572566391296
 30
0.0
 10
1201.940309012109
 20
-40.96957074306707
 30
0.0
 10
1201.940309012109
 20
-41.24573820990341
 30
0.0
 10
1201.940309012109
 20
-41.24573820990341
 30
0.0
 10
1201.940309012109
 20
-54.24571989610654
 30
0.0
 10
1201.940309012109
 20
-54.24571989610654
 30
0.0
  0
SPLINE
  5
66
330
1F
100
AcDbEntity
  8
Camada 1
 62
     7
420
 16777215
370
    13
100
AcDbSpline
210
0.0
220
0.0
230
1.0
 70
    11
 71
     3
 72
    29
 73
    25
 74
     0
 42
0.0000000001
 43
0.0000000001
 12
1.0
 22
0.0
 32
0.0
 13
1.0
 23
0.0
 33
0.0
 40
0.0
 40
0.0
 40
0.0
 40
0.0
 40
1.0
 40
1.0
 40
1.0
 40
2.0
 40
2.0
 40
2.0
 40
3.0
 40
3.0
 40
3.0
 40
4.0
 40
4.0
 40
4.0
 40
5.0
 40
5.0
 40
5.0
 40
6.0
 40
6.0
 40
6.0
 40
7.0
 40
7.0
 40
7.0
 40
8.0
 40
8.0
 40
8.0
 40
8.0
 10
1201.940309012109
 20
-35.10944179081032
 30
0.0
 10
1201.940309012109
 20
-35.38558772579987
 30
0.0
 10
1201.716463932955
 20
-35.60943280495398
 30
0.0
 10
1201.440296466119
 20
-35.60943280495398
 30
0.0
 10
1201.440296466119
 20
-35.60943280495398
 30
0.0
 10
1188.440314779915
 20
-35.60943280495398
 30
0.0
 10
1188.440314779915
 20
-35.60943280495398
 30
0.0
 10
1188.164190376773
 20
-35.60943280495398
 30
0.0
 10
1187.940345297618
 20
-35.38558772579987
 30
0.0
 10
1187.940345297618
 20
-35.10944179081032
 30
0.0
 10
1187.940345297618
 20
-35.10944179081032
 30
0.0
 10
1187.940345297618
 20
-22.1094385727604
 30
0.0
 10
1187.940345297618
 20
-22.1094385727604
 30
0.0
 10
1187.940345297618
 20
-21.83329263777085
 30
0.0
 10
1188.164190376773
 20
-21.60944755861674
 30
0.0
 10
1188.440314779915
 20
-21.60944755861674
 30
0.0
 10
1188.440314779915
 20
-21.60944755861674
 30
0.0
 10
1201.440296466119
 20
-21.60944755861674
 30
0.0
 10
1201.440296466119
 20
-21.60944755861674
 30
0.0
 10
1201.716463932955
 20
-21.60944755861674
 30
0.0
 10
1201.940309012109
 20
-21.83329263777085
 30
0.0
 10
1201.940309012109
 20
-22.1094385727604
 30
0.0
 10
1201.940309012109
 20
-22.1094385727604
 30
0.0
 10
1201.940309012109
 20
-35.10944179081032
 30
0.0
 10
1201.940309012109
 20
-35.10944179081032
 30
0.0
  0
SPLINE
  5
67
330
1F
100
AcDbEntity
  8
Camada 1
 62
     7
420
 16777215
370
    13
100
AcDbSpline
210
0.0
220
0.0
230
1.0
 70
    11
 71
     3
 72
    29
 73
    25
 74
     0
 42
0.0000000001
 43
0.0000000001
 12
1.0
 22
0.0
 32
0.0
 13
1.0
 23
0.0
 33
0.0
 40
0.0
 40
0.0
 40
0.0
 40
0.0
 40
1.0
 40
1.0
 40
1.0
 40
2.0
 40
2.0
 40
2.0
 40
3.0
 40
3.0
 40
3.0
 40
4.0
 40
4.0
 40
4.0
 40
5.0
 40
5.0
 40
5.0
 40
6.0
 40
6.0
 40
6.0
 40
7.0
 40
7.0
 40
7.0
 40
8.0
 40
8.0
 40
8.0
 40
8.0
 10
1201.940309012109
 20
-16.01917724208896
 30
0.0
 10
1201.940309012109
 20
-16.29532317707852
 30
0.0
 10
1201.716463932955
 20
-16.51916825623262
 30
0.0
 10
1201.440296466119
 20
-16.51916825623262
 30
0.0
 10
1201.440296466119
 20
-16.51916825623262
 30
0.0
 10
1188.440314779915
 20
-16.51916825623262
 30
0.0
 10
1188.440314779915
 20
-16.51916825623262
 30
0.0
 10
1188.164190376773
 20
-16.51916825623262
 30
0.0
 10
1187.940345297618
 20
-16.29532317707852
 30
0.0
 10
1187.940345297618
 20
-16.01917724208896
 30
0.0
 10
1187.940345297618
 20
-16.01917724208896
 30
0.0
 10
1187.940345297618
 20
-3.019174024039043
 30
0.0
 10
1187.940345297618
 20
-3.019174024039043
 30
0.0
 10
1187.940345297618
 20
-2.743028089049486
 30
0.0
 10
1188.164190376773
 20
-2.519183009895378
 30
0.0
 10
1188.440314779915
 20
-2.519183009895378
 30
0.0
 10
1188.440314779915
 20
-2.519183009895378
 30
0.0
 10
1201.440296466119
 20
-2.519183009895378
 30
0.0
 10
1201.440296466119
 20
-2.519183009895378
 30
0.0
 10
1201.716463932955
 20
-2.519183009895378
 30
0.0
 10
1201.940309012109
 20
-2.743028089049486
 30
0.0
 10
1201.940309012109
 20
-3.019174024039043
 30
0.0
 10
1201.940309012109
 20
-3.019174024039043
 30
0.0
 10
1201.940309012109
 20
-16.01917724208896
 30
0.0
 10
1201.940309012109
 20
-16.01917724208896
 30
0.0
  0
SPLINE
  5
68
330
1F
100
AcDbEntity
  8
Camada 1
 62
     7
420
 16777215
370
    13
100
AcDbSpline
210
0.0
220
0.0
230
1.0
 70
    11
 71
     3
 72
    29
 73
    25
 74
     0
 42
0.0000000001
 43
0.0000000001
 12
1.0
 22
0.0
 32
0.0
 13
1.0
 23
0.0
 33
0.0
 40
0.0
 40
0.0
 40
0.0
 40
0.0
 40
1.0
 40
1.0
 40
1.0
 40
2.0
 40
2.0
 40
2.0
 40
3.0
 40
3.0
 40
3.0
 40
4.0
 40
4.0
 40
4.0
 40
5.0
 40
5.0
 40
5.0
 40
6.0
 40
6.0
 40
6.0
 40
7.0
 40
7.0
 40
7.0
 40
8.0
 40
8.0
 40
8.0
 40
8.0
 10
1220.990309007346
 20
-73.3992450106758
 30
0.0
 10
1220.990309007346
 20
-73.67536941381857
 30
0.0
 10
1220.766463928192
 20
-73.89925755666624
 30
0.0
 10
1220.490296461356
 20
-73.89925755666624
 30
0.0
 10
1220.490296461356
 20
-73.89925755666624
 30
0.0
 10
1207.490314775153
 20
-73.89925755666624
 30
0.0
 10
1207.490314775153
 20
-73.89925755666624
 30
0.0
 10
1207.21419037201
 20
-73.89925755666624
 30
0.0
 10
1206.990345292856
 20
-73.67536941381857
 30
0.0
 10
1206.990345292856
 20
-73.3992450106758
 30
0.0
 10
1206.990345292856
 20
-73.3992450106758
 30
0.0
 10
1206.990345292856
 20
-60.39926332447267
 30
0.0
 10
1206.990345292856
 20
-60.39926332447267
 30
0.0
 10
1206.990345292856
 20
-60.1231389213299
 30
0.0
 10
1207.21419037201
 20
-59.89925077848222
 30
0.0
 10
1207.490314775153
 20
-59.89925077848222
 30
0.0
 10
1207.490314775153
 20
-59.89925077848222
 30
0.0
 10
1220.490296461356
 20
-59.89925077848222
 30
0.0
 10
1220.490296461356
 20
-59.89925077848222
 30
0.0
 10
1220.766463928192
 20
-59.89925077848222
 30
0.0
 10
1220.990309007346
 20
-60.1231389213299
 30
0.0
 10
1220.990309007346
 20
-60.39926332447267
 30
0.0
 10
1220.990309007346
 20
-60.39926332447267
 30
0.0
 10
1220.990309007346
 20
-73.3992450106758
 30
0.0
 10
1220.990309007346
 20
-73.3992450106758
 30
0.0
  0
SPLINE
  5
69
330
1F
100
AcDbEntity
  8
Camada 1
 62
     7
420
 16777215
370
    13
100
AcDbSpline
210
0.0
220
0.0
230
1.0
 70
    11
 71
     3
 72
    29
 73
    25
 74
     0
 42
0.0000000001
 43
0.0000000001
 12
1.0
 22
0.0
 32
0.0
 13
1.0
 23
0.0
 33
0.0
 40
0.0
 40
0.0
 40
0.0
 40
0.0
 40
1.0
 40
1.0
 40
1.0
 40
2.0
 40
2.0
 40
2.0
 40
3.0
 40
3.0
 40
3.0
 40
4.0
 40
4.0
 40
4.0
 40
5.0
 40
5.0
 40
5.0
 40
6.0
 40
6.0
 40
6.0
 40
7.0
 40
7.0
 40
7.0
 40
8.0
 40
8.0
 40
8.0
 40
8.0
 10
1220.990309007346
 20
-54.24571989610654
 30
0.0
 10
1220.990309007346
 20
-54.52184429924932
 30
0.0
 10
1220.766463928192
 20
-54.74568937840343
 30
0.0
 10
1220.490296461356
 20
-54.74568937840343
 30
0.0
 10
1220.490296461356
 20
-54.74568937840343
 30
0.0
 10
1207.490314775153
 20
-54.74568937840343
 30
0.0
 10
1207.490314775153
 20
-54.74568937840343
 30
0.0
 10
1207.21419037201
 20
-54.74568937840343
 30
0.0
 10
1206.990345292856
 20
-54.52184429924932
 30
0.0
 10
1206.990345292856
 20
-54.24571989610654
 30
0.0
 10
1206.990345292856
 20
-54.24571989610654
 30
0.0
 10
1206.990345292856
 20
-41.24573820990341
 30
0.0
 10
1206.990345292856
 20
-41.24573820990341
 30
0.0
 10
1206.990345292856
 20
-40.96957074306707
 30
0.0
 10
1207.21419037201
 20
-40.74572566391296
 30
0.0
 10
1207.490314775153
 20
-40.74572566391296
 30
0.0
 10
1207.490314775153
 20
-40.74572566391296
 30
0.0
 10
1220.490296461356
 20
-40.74572566391296
 30
0.0
 10
1220.490296461356
 20
-40.74572566391296
 30
0.0
 10
1220.766463928192
 20
-40.74572566391296
 30
0.0
 10
1220.990309007346
 20
-40.96957074306707
 30
0.0
 10
1220.990309007346
 20
-41.24573820990341
 30
0.0
 10
1220.990309007346
 20
-41.24573820990341
 30
0.0
 10
1220.990309007346
 20
-54.24571989610654
 30
0.0
 10
1220.990309007346
 20
-54.24571989610654
 30
0.0
  0
SPLINE
  5
6A
330
1F
100
AcDbEntity
  8
Camada 1
 62
     7
420
 16777215
370
    13
100
AcDbSpline
210
0.0
220
0.0
230
1.0
 70
    11
 71
     3
 72
    29
 73
    25
 74
     0
 42
0.0000000001
 43
0.0000000001
 12
1.0
 22
0.0
 32
0.0
 13
1.0
 23
0.0
 33
0.0
 40
0.0
 40
0.0
 40
0.0
 40
0.0
 40
1.0
 40
1.0
 40
1.0
 40
2.0
 40
2.0
 40
2.0
 40
3.0
 40
3.0
 40
3.0
 40
4.0
 40
4.0
 40
4.0
 40
5.0
 40
5.0
 40
5.0
 40
6.0
 40
6.0
 40
6.0
 40
7.0
 40
7.0
 40
7.0
 40
8.0
 40
8.0
 40
8.0
 40
8.0
 10
1220.990309007346
 20
-35.10944179081032
 30
0.0
 10
1220.990309007346
 20
-35.38558772579987
 30
0.0
 10
1220.766463928192
 20
-35.60943280495398
 30
0.0
 10
1220.490296461356
 20
-35.60943280495398
 30
0.0
 10
1220.490296461356
 20
-35.60943280495398
 30
0.0
 10
1207.490314775153
 20
-35.60943280495398
 30
0.0
 10
1207.490314775153
 20
-35.60943280495398
 30
0.0
 10
1207.21419037201
 20
-35.60943280495398
 30
0.0
 10
1206.990345292856
 20
-35.38558772579987
 30
0.0
 10
1206.990345292856
 20
-35.10944179081032
 30
0.0
 10
1206.990345292856
 20
-35.10944179081032
 30
0.0
 10
1206.990345292856
 20
-22.1094385727604
 30
0.0
 10
1206.990345292856
 20
-22.1094385727604
 30
0.0
 10
1206.990345292856
 20
-21.83329263777085
 30
0.0
 10
1207.21419037201
 20
-21.60944755861674
 30
0.0
 10
1207.490314775153
 20
-21.60944755861674
 30
0.0
 10
1207.490314775153
 20
-21.60944755861674
 30
0.0
 10
1220.490296461356
 20
-21.60944755861674
 30
0.0
 10
1220.490296461356
 20
-21.60944755861674
 30
0.0
 10
1220.766463928192
 20
-21.60944755861674
 30
0.0
 10
1220.990309007346
 20
-21.83329263777085
 30
0.0
 10
1220.990309007346
 20
-22.1094385727604
 30
0.0
 10
1220.990309007346
 20
-22.1094385727604
 30
0.0
 10
1220.990309007346
 20
-35.10944179081032
 30
0.0
 10
1220.990309007346
 20
-35.10944179081032
 30
0.0
  0
SPLINE
  5
6B
330
1F
100
AcDbEntity
  8
Camada 1
 62
     7
420
 16777215
370
    13
100
AcDbSpline
210
0.0
220
0.0
230
1.0
 70
    11
 71
     3
 72
    29
 73
    25
 74
     0
 42
0.0000000001
 43
0.0000000001
 12
1.0
 22
0.0
 32
0.0
 13
1.0
 23
0.0
 33
0.0
 40
0.0
 40
0.0
 40
0.0
 40
0.0
 40
1.0
 40
1.0
 40
1.0
 40
2.0
 40
2.0
 40
2.0
 40
3.0
 40
3.0
 40
3.0
 40
4.0
 40
4.0
 40
4.0
 40
5.0
 40
5.0
 40
5.0
 40
6.0
 40
6.0
 40
6.0
 40
7.0
 40
7.0
 40
7.0
 40
8.0
 40
8.0
 40
8.0
 40
8.0
 10
1220.990309007346
 20
-16.01917724208896
 30
0.0
 10
1220.990309007346
 20
-16.29532317707852
 30
0.0
 10
1220.766463928192
 20
-16.51916825623262
 30
0.0
 10
1220.490296461356
 20
-16.51916825623262
 30
0.0
 10
1220.490296461356
 20
-16.51916825623262
 30
0.0
 10
1207.490314775153
 20
-16.51916825623262
 30
0.0
 10
1207.490314775153
 20
-16.51916825623262
 30
0.0
 10
1207.21419037201
 20
-16.51916825623262
 30
0.0
 10
1206.990345292856
 20
-16.29532317707852
 30
0.0
 10
1206.990345292856
 20
-16.01917724208896
 30
0.0
 10
1206.990345292856
 20
-16.01917724208896
 30
0.0
 10
1206.990345292856
 20
-3.019174024039043
 30
0.0
 10
1206.990345292856
 20
-3.019174024039043
 30
0.0
 10
1206.990345292856
 20
-2.743028089049486
 30
0.0
 10
1207.21419037201
 20
-2.519183009895378
 30
0.0
 10
1207.490314775153
 20
-2.519183009895378
 30
0.0
 10
1207.490314775153
 20
-2.519183009895378
 30
0.0
 10
1220.490296461356
 20
-2.519183009895378
 30
0.0
 10
1220.490296461356
 20
-2.519183009895378
 30
0.0
 10
1220.766463928192
 20
-2.519183009895378
 30
0.0
 10
1220.990309007346
 20
-2.743028089049486
 30
0.0
 10
1220.990309007346
 20
-3.019174024039043
 30
0.0
 10
1220.990309007346
 20
-3.019174024039043
 30
0.0
 10
1220.990309007346
 20
-16.01917724208896
 30
0.0
 10
1220.990309007346
 20
-16.01917724208896
 30
0.0
  0
SPLINE
  5
6C
330
1F
100
AcDbEntity
  8
Camada 1
 62
     7
420
 16777215
370
    13
100
AcDbSpline
210
0.0
220
0.0
230
1.0
 70
    11
 71
     3
 72
    29
 73
    25
 74
     0
 42
0.0000000001
 43
0.0000000001
 12
1.0
 22
0.0
 32
0.0
 13
1.0
 23
0.0
 33
0.0
 40
0.0
 40
0.0
 40
0.0
 40
0.0
 40
1.0
 40
1.0
 40
1.0
 40
2.0
 40
2.0
 40
2.0
 40
3.0
 40
3.0
 40
3.0
 40
4.0
 40
4.0
 40
4.0
 40
5.0
 40
5.0
 40
5.0
 40
6.0
 40
6.0
 40
6.0
 40
7.0
 40
7.0
 40
7.0
 40
8.0
 40
8.0
 40
8.0
 40
8.0
 10
1240.07480302113
 20
-73.3992450106758
 30
0.0
 10
1240.07480302113
 20
-73.67536941381857
 30
0.0
 10
1239.850957941976
 20
-73.89925755666624
 30
0.0
 10
1239.574833538833
 20
-73.89925755666624
 30
0.0
 10
1239.574833538833
 20
-73.89925755666624
 30
0.0
 10
1226.57485185263
 20
-73.89925755666624
 30
0.0
 10
1226.57485185263
 20
-73.89925755666624
 30
0.0
 10
1226.298684385794
 20
-73.89925755666624
 30
0.0
 10
1226.07483930664
 20
-73.67536941381857
 30
0.0
 10
1226.07483930664
 20
-73.3992450106758
 30
0.0
 10
1226.07483930664
 20
-73.3992450106758
 30
0.0
 10
1226.07483930664
 20
-60.39926332447267
 30
0.0
 10
1226.07483930664
 20
-60.39926332447267
 30
0.0
 10
1226.07483930664
 20
-60.1231389213299
 30
0.0
 10
1226.298684385794
 20
-59.89925077848222
 30
0.0
 10
1226.57485185263
 20
-59.89925077848222
 30
0.0
 10
1226.57485185263
 20
-59.89925077848222
 30
0.0
 10
1239.574833538833
 20
-59.89925077848222
 30
0.0
 10
1239.574833538833
 20
-59.89925077848222
 30
0.0
 10
1239.850957941976
 20
-59.89925077848222
 30
0.0
 10
1240.07480302113
 20
-60.1231389213299
 30
0.0
 10
1240.07480302113
 20
-60.39926332447267
 30
0.0
 10
1240.07480302113
 20
-60.39926332447267
 30
0.0
 10
1240.07480302113
 20
-73.3992450106758
 30
0.0
 10
1240.07480302113
 20
-73.3992450106758
 30
0.0
  0
SPLINE
  5
6D
330
1F
100
AcDbEntity
  8
Camada 1
 62
     7
420
 16777215
370
    13
100
AcDbSpline
210
0.0
220
0.0
230
1.0
 70
    11
 71
     3
 72
    29
 73
    25
 74
     0
 42
0.0000000001
 43
0.0000000001
 12
1.0
 22
0.0
 32
0.0
 13
1.0
 23
0.0
 33
0.0
 40
0.0
 40
0.0
 40
0.0
 40
0.0
 40
1.0
 40
1.0
 40
1.0
 40
2.0
 40
2.0
 40
2.0
 40
3.0
 40
3.0
 40
3.0
 40
4.0
 40
4.0
 40
4.0
 40
5.0
 40
5.0
 40
5.0
 40
6.0
 40
6.0
 40
6.0
 40
7.0
 40
7.0
 40
7.0
 40
8.0
 40
8.0
 40
8.0
 40
8.0
 10
1240.07480302113
 20
-54.24571989610654
 30
0.0
 10
1240.07480302113
 20
-54.52184429924932
 30
0.0
 10
1239.850957941976
 20
-54.74568937840343
 30
0.0
 10
1239.574833538833
 20
-54.74568937840343
 30
0.0
 10
1239.574833538833
 20
-54.74568937840343
 30
0.0
 10
1226.57485185263
 20
-54.74568937840343
 30
0.0
 10
1226.57485185263
 20
-54.74568937840343
 30
0.0
 10
1226.298684385794
 20
-54.74568937840343
 30
0.0
 10
1226.07483930664
 20
-54.52184429924932
 30
0.0
 10
1226.07483930664
 20
-54.24571989610654
 30
0.0
 10
1226.07483930664
 20
-54.24571989610654
 30
0.0
 10
1226.07483930664
 20
-41.24573820990341
 30
0.0
 10
1226.07483930664
 20
-41.24573820990341
 30
0.0
 10
1226.07483930664
 20
-40.96957074306707
 30
0.0
 10
1226.298684385794
 20
-40.74572566391296
 30
0.0
 10
1226.57485185263
 20
-40.74572566391296
 30
0.0
 10
1226.57485185263
 20
-40.74572566391296
 30
0.0
 10
1239.574833538833
 20
-40.74572566391296
 30
0.0
 10
1239.574833538833
 20
-40.74572566391296
 30
0.0
 10
1239.850957941976
 20
-40.74572566391296
 30
0.0
 10
1240.07480302113
 20
-40.96957074306707
 30
0.0
 10
1240.07480302113
 20
-41.24573820990341
 30
0.0
 10
1240.07480302113
 20
-41.24573820990341
 30
0.0
 10
1240.07480302113
 20
-54.24571989610654
 30
0.0
 10
1240.07480302113
 20
-54.24571989610654
 30
0.0
  0
SPLINE
  5
6E
330
1F
100
AcDbEntity
  8
Camada 1
 62
     7
420
 16777215
370
    13
100
AcDbSpline
210
0.0
220
0.0
230
1.0
 70
    11
 71
     3
 72
    29
 73
    25
 74
     0
 42
0.0000000001
 43
0.0000000001
 12
1.0
 22
0.0
 32
0.0
 13
1.0
 23
0.0
 33
0.0
 40
0.0
 40
0.0
 40
0.0
 40
0.0
 40
1.0
 40
1.0
 40
1.0
 40
2.0
 40
2.0
 40
2.0
 40
3.0
 40
3.0
 40
3.0
 40
4.0
 40
4.0
 40
4.0
 40
5.0
 40
5.0
 40
5.0
 40
6.0
 40
6.0
 40
6.0
 40
7.0
 40
7.0
 40
7.0
 40
8.0
 40
8.0
 40
8.0
 40
8.0
 10
1240.07480302113
 20
-35.10944179081032
 30
0.0
 10
1240.07480302113
 20
-35.38558772579987
 30
0.0
 10
1239.850957941976
 20
-35.60943280495398
 30
0.0
 10
1239.574833538833
 20
-35.60943280495398
 30
0.0
 10
1239.574833538833
 20
-35.60943280495398
 30
0.0
 10
1226.57485185263
 20
-35.60943280495398
 30
0.0
 10
1226.57485185263
 20
-35.60943280495398
 30
0.0
 10
1226.298684385794
 20
-35.60943280495398
 30
0.0
 10
1226.07483930664
 20
-35.38558772579987
 30
0.0
 10
1226.07483930664
 20
-35.10944179081032
 30
0.0
 10
1226.07483930664
 20
-35.10944179081032
 30
0.0
 10
1226.07483930664
 20
-22.1094385727604
 30
0.0
 10
1226.07483930664
 20
-22.1094385727604
 30
0.0
 10
1226.07483930664
 20
-21.83329263777085
 30
0.0
 10
1226.298684385794
 20
-21.60944755861674
 30
0.0
 10
1226.57485185263
 20
-21.60944755861674
 30
0.0
 10
1226.57485185263
 20
-21.60944755861674
 30
0.0
 10
1239.574833538833
 20
-21.60944755861674
 30
0.0
 10
1239.574833538833
 20
-21.60944755861674
 30
0.0
 10
1239.850957941976
 20
-21.60944755861674
 30
0.0
 10
1240.07480302113
 20
-21.83329263777085
 30
0.0
 10
1240.07480302113
 20
-22.1094385727604
 30
0.0
 10
1240.07480302113
 20
-22.1094385727604
 30
0.0
 10
1240.07480302113
 20
-35.10944179081032
 30
0.0
 10
1240.07480302113
 20
-35.10944179081032
 30
0.0
  0
SPLINE
  5
6F
330
1F
100
AcDbEntity
  8
Camada 1
 62
     7
420
 16777215
370
    13
100
AcDbSpline
210
0.0
220
0.0
230
1.0
 70
    11
 71
     3
 72
    29
 73
    25
 74
     0
 42
0.0000000001
 43
0.0000000001
 12
1.0
 22
0.0
 32
0.0
 13
1.0
 23
0.0
 33
0.0
 40
0.0
 40
0.0
 40
0.0
 40
0.0
 40
1.0
 40
1.0
 40
1.0
 40
2.0
 40
2.0
 40
2.0
 40
3.0
 40
3.0
 40
3.0
 40
4.0
 40
4.0
 40
4.0
 40
5.0
 40
5.0
 40
5.0
 40
6.0
 40
6.0
 40
6.0
 40
7.0
 40
7.0
 40
7.0
 40
8.0
 40
8.0
 40
8.0
 40
8.0
 10
1240.07480302113
 20
-16.01917724208896
 30
0.0
 10
1240.07480302113
 20
-16.29532317707852
 30
0.0
 10
1239.850957941976
 20
-16.51916825623262
 30
0.0
 10
1239.574833538833
 20
-16.51916825623262
 30
0.0
 10
1239.574833538833
 20
-16.51916825623262
 30
0.0
 10
1226.57485185263
 20
-16.51916825623262
 30
0.0
 10
1226.57485185263
 20
-16.51916825623262
 30
0.0
 10
1226.298684385794
 20
-16.51916825623262
 30
0.0
 10
1226.07483930664
 20
-16.29532317707852
 30
0.0
 10
1226.07483930664
 20
-16.01917724208896
 30
0.0
 10
1226.07483930664
 20
-16.01917724208896
 30
0.0
 10
1226.07483930664
 20
-3.019174024039043
 30
0.0
 10
1226.07483930664
 20
-3.019174024039043
 30
0.0
 10
1226.07483930664
 20
-2.743028089049486
 30
0.0
 10
1226.298684385794
 20
-2.519183009895378
 30
0.0
 10
1226.57485185263
 20
-2.519183009895378
 30
0.0
 10
1226.57485185263
 20
-2.519183009895378
 30
0.0
 10
1239.574833538833
 20
-2.519183009895378
 30
0.0
 10
1239.574833538833
 20
-2.519183009895378
 30
0.0
 10
1239.850957941976
 20
-2.519183009895378
 30
0.0
 10
1240.07480302113
 20
-2.743028089049486
 30
0.0
 10
1240.07480302113
 20
-3.019174024039043
 30
0.0
 10
1240.07480302113
 20
-3.019174024039043
 30
0.0
 10
1240.07480302113
 20
-16.01917724208896
 30
0.0
 10
1240.07480302113
 20
-16.01917724208896
 30
0.0
  0
SPLINE
  5
70
330
1F
100
AcDbEntity
  8
Camada 1
 62
     7
420
 16777215
370
    13
100
AcDbSpline
210
0.0
220
0.0
230
1.0
 70
    11
 71
     3
 72
    29
 73
    25
 74
     0
 42
0.0000000001
 43
0.0000000001
 12
1.0
 22
0.0
 32
0.0
 13
1.0
 23
0.0
 33
0.0
 40
0.0
 40
0.0
 40
0.0
 40
0.0
 40
1.0
 40
1.0
 40
1.0
 40
2.0
 40
2.0
 40
2.0
 40
3.0
 40
3.0
 40
3.0
 40
4.0
 40
4.0
 40
4.0
 40
5.0
 40
5.0
 40
5.0
 40
6.0
 40
6.0
 40
6.0
 40
7.0
 40
7.0
 40
7.0
 40
8.0
 40
8.0
 40
8.0
 40
8.0
 10
1259.055814979276
 20
-73.3992450106758
 30
0.0
 10
1259.055814979276
 20
-73.67536941381857
 30
0.0
 10
1258.831969900121
 20
-73.89925755666624
 30
0.0
 10
1258.555845496978
 20
-73.89925755666624
 30
0.0
 10
1258.555845496978
 20
-73.89925755666624
 30
0.0
 10
1245.555777683388
 20
-73.89925755666624
 30
0.0
 10
1245.555777683388
 20
-73.89925755666624
 30
0.0
 10
1245.279653280245
 20
-73.89925755666624
 30
0.0
 10
1245.055808201091
 20
-73.67536941381857
 30
0.0
 10
1245.055808201091
 20
-73.3992450106758
 30
0.0
 10
1245.055808201091
 20
-73.3992450106758
 30
0.0
 10
1245.055808201091
 20
-60.39926332447267
 30
0.0
 10
1245.055808201091
 20
-60.39926332447267
 30
0.0
 10
1245.055808201091
 20
-60.1231389213299
 30
0.0
 10
1245.279653280245
 20
-59.89925077848222
 30
0.0
 10
1245.555777683388
 20
-59.89925077848222
 30
0.0
 10
1245.555777683388
 20
-59.89925077848222
 30
0.0
 10
1258.555845496978
 20
-59.89925077848222
 30
0.0
 10
1258.555845496978
 20
-59.89925077848222
 30
0.0
 10
1258.831969900121
 20
-59.89925077848222
 30
0.0
 10
1259.055814979276
 20
-60.1231389213299
 30
0.0
 10
1259.055814979276
 20
-60.39926332447267
 30
0.0
 10
1259.055814979276
 20
-60.39926332447267
 30
0.0
 10
1259.055814979276
 20
-73.3992450106758
 30
0.0
 10
1259.055814979276
 20
-73.3992450106758
 30
0.0
  0
SPLINE
  5
71
330
1F
100
AcDbEntity
  8
Camada 1
 62
     7
420
 16777215
370
    13
100
AcDbSpline
210
0.0
220
0.0
230
1.0
 70
    11
 71
     3
 72
    29
 73
    25
 74
     0
 42
0.0000000001
 43
0.0000000001
 12
1.0
 22
0.0
 32
0.0
 13
1.0
 23
0.0
 33
0.0
 40
0.0
 40
0.0
 40
0.0
 40
0.0
 40
1.0
 40
1.0
 40
1.0
 40
2.0
 40
2.0
 40
2.0
 40
3.0
 40
3.0
 40
3.0
 40
4.0
 40
4.0
 40
4.0
 40
5.0
 40
5.0
 40
5.0
 40
6.0
 40
6.0
 40
6.0
 40
7.0
 40
7.0
 40
7.0
 40
8.0
 40
8.0
 40
8.0
 40
8.0
 10
1259.055814979276
 20
-54.24571989610654
 30
0.0
 10
1259.055814979276
 20
-54.52184429924932
 30
0.0
 10
1258.831969900121
 20
-54.74568937840343
 30
0.0
 10
1258.555845496978
 20
-54.74568937840343
 30
0.0
 10
1258.555845496978
 20
-54.74568937840343
 30
0.0
 10
1245.555777683388
 20
-54.74568937840343
 30
0.0
 10
1245.555777683388
 20
-54.74568937840343
 30
0.0
 10
1245.279653280245
 20
-54.74568937840343
 30
0.0
 10
1245.055808201091
 20
-54.52184429924932
 30
0.0
 10
1245.055808201091
 20
-54.24571989610654
 30
0.0
 10
1245.055808201091
 20
-54.24571989610654
 30
0.0
 10
1245.055808201091
 20
-41.24573820990341
 30
0.0
 10
1245.055808201091
 20
-41.24573820990341
 30
0.0
 10
1245.055808201091
 20
-40.96957074306707
 30
0.0
 10
1245.279653280245
 20
-40.74572566391296
 30
0.0
 10
1245.555777683388
 20
-40.74572566391296
 30
0.0
 10
1245.555777683388
 20
-40.74572566391296
 30
0.0
 10
1258.555845496978
 20
-40.74572566391296
 30
0.0
 10
1258.555845496978
 20
-40.74572566391296
 30
0.0
 10
1258.831969900121
 20
-40.74572566391296
 30
0.0
 10
1259.055814979276
 20
-40.96957074306707
 30
0.0
 10
1259.055814979276
 20
-41.24573820990341
 30
0.0
 10
1259.055814979276
 20
-41.24573820990341
 30
0.0
 10
1259.055814979276
 20
-54.24571989610654
 30
0.0
 10
1259.055814979276
 20
-54.24571989610654
 30
0.0
  0
SPLINE
  5
72
330
1F
100
AcDbEntity
  8
Camada 1
 62
     7
420
 16777215
370
    13
100
AcDbSpline
210
0.0
220
0.0
230
1.0
 70
    11
 71
     3
 72
    29
 73
    25
 74
     0
 42
0.0000000001
 43
0.0000000001
 12
1.0
 22
0.0
 32
0.0
 13
1.0
 23
0.0
 33
0.0
 40
0.0
 40
0.0
 40
0.0
 40
0.0
 40
1.0
 40
1.0
 40
1.0
 40
2.0
 40
2.0
 40
2.0
 40
3.0
 40
3.0
 40
3.0
 40
4.0
 40
4.0
 40
4.0
 40
5.0
 40
5.0
 40
5.0
 40
6.0
 40
6.0
 40
6.0
 40
7.0
 40
7.0
 40
7.0
 40
8.0
 40
8.0
 40
8.0
 40
8.0
 10
1259.055814979276
 20
-35.10944179081032
 30
0.0
 10
1259.055814979276
 20
-35.38558772579987
 30
0.0
 10
1258.831969900121
 20
-35.60943280495398
 30
0.0
 10
1258.555845496978
 20
-35.60943280495398
 30
0.0
 10
1258.555845496978
 20
-35.60943280495398
 30
0.0
 10
1245.555777683388
 20
-35.60943280495398
 30
0.0
 10
1245.555777683388
 20
-35.60943280495398
 30
0.0
 10
1245.279653280245
 20
-35.60943280495398
 30
0.0
 10
1245.055808201091
 20
-35.38558772579987
 30
0.0
 10
1245.055808201091
 20
-35.10944179081032
 30
0.0
 10
1245.055808201091
 20
-35.10944179081032
 30
0.0
 10
1245.055808201091
 20
-22.1094385727604
 30
0.0
 10
1245.055808201091
 20
-22.1094385727604
 30
0.0
 10
1245.055808201091
 20
-21.83329263777085
 30
0.0
 10
1245.279653280245
 20
-21.60944755861674
 30
0.0
 10
1245.555777683388
 20
-21.60944755861674
 30
0.0
 10
1245.555777683388
 20
-21.60944755861674
 30
0.0
 10
1258.555845496978
 20
-21.60944755861674
 30
0.0
 10
1258.555845496978
 20
-21.60944755861674
 30
0.0
 10
1258.831969900121
 20
-21.60944755861674
 30
0.0
 10
1259.055814979276
 20
-21.83329263777085
 30
0.0
 10
1259.055814979276
 20
-22.1094385727604
 30
0.0
 10
1259.055814979276
 20
-22.1094385727604
 30
0.0
 10
1259.055814979276
 20
-35.10944179081032
 30
0.0
 10
1259.055814979276
 20
-35.10944179081032
 30
0.0
  0
SPLINE
  5
73
330
1F
100
AcDbEntity
  8
Camada 1
 62
     7
420
 16777215
370
    13
100
AcDbSpline
210
0.0
220
0.0
230
1.0
 70
    11
 71
     3
 72
    29
 73
    25
 74
     0
 42
0.0000000001
 43
0.0000000001
 12
1.0
 22
0.0
 32
0.0
 13
1.0
 23
0.0
 33
0.0
 40
0.0
 40
0.0
 40
0.0
 40
0.0
 40
1.0
 40
1.0
 40
1.0
 40
2.0
 40
2.0
 40
2.0
 40
3.0
 40
3.0
 40
3.0
 40
4.0
 40
4.0
 40
4.0
 40
5.0
 40
5.0
 40
5.0
 40
6.0
 40
6.0
 40
6.0
 40
7.0
 40
7.0
 40
7.0
 40
8.0
 40
8.0
 40
8.0
 40
8.0
 10
1259.055814979276
 20
-16.01917724208896
 30
0.0
 10
1259.055814979276
 20
-16.29532317707852
 30
0.0
 10
1258.831969900121
 20
-16.51916825623262
 30
0.0
 10
1258.555845496978
 20
-16.51916825623262
 30
0.0
 10
1258.555845496978
 20
-16.51916825623262
 30
0.0
 10
1245.555777683388
 20
-16.51916825623262
 30
0.0
 10
1245.555777683388
 20
-16.51916825623262
 30
0.0
 10
1245.279653280245
 20
-16.51916825623262
 30
0.0
 10
1245.055808201091
 20
-16.29532317707852
 30
0.0
 10
1245.055808201091
 20
-16.01917724208896
 30
0.0
 10
1245.055808201091
 20
-16.01917724208896
 30
0.0
 10
1245.055808201091
 20
-3.019174024039043
 30
0.0
 10
1245.055808201091
 20
-3.019174024039043
 30
0.0
 10
1245.055808201091
 20
-2.743028089049486
 30
0.0
 10
1245.279653280245
 20
-2.519183009895378
 30
0.0
 10
1245.555777683388
 20
-2.519183009895378
 30
0.0
 10
1245.555777683388
 20
-2.519183009895378
 30
0.0
 10
1258.555845496978
 20
-2.519183009895378
 30
0.0
 10
1258.555845496978
 20
-2.519183009895378
 30
0.0
 10
1258.831969900121
 20
-2.519183009895378
 30
0.0
 10
1259.055814979276
 20
-2.743028089049486
 30
0.0
 10
1259.055814979276
 20
-3.019174024039043
 30
0.0
 10
1259.055814979276
 20
-3.019174024039043
 30
0.0
 10
1259.055814979276
 20
-16.01917724208896
 30
0.0
 10
1259.055814979276
 20
-16.01917724208896
 30
0.0
  0
SPLINE
  5
74
330
1F
100
AcDbEntity
  8
Camada 1
 62
     7
420
 16777215
370
    13
100
AcDbSpline
210
0.0
220
0.0
230
1.0
 70
    11
 71
     3
 72
    29
 73
    25
 74
     0
 42
0.0000000001
 43
0.0000000001
 12
1.0
 22
0.0
 32
0.0
 13
1.0
 23
0.0
 33
0.0
 40
0.0
 40
0.0
 40
0.0
 40
0.0
 40
1.0
 40
1.0
 40
1.0
 40
2.0
 40
2.0
 40
2.0
 40
3.0
 40
3.0
 40
3.0
 40
4.0
 40
4.0
 40
4.0
 40
5.0
 40
5.0
 40
5.0
 40
6.0
 40
6.0
 40
6.0
 40
7.0
 40
7.0
 40
7.0
 40
8.0
 40
8.0
 40
8.0
 40
8.0
 10
1278.140352056753
 20
-73.3992450106758
 30
0.0
 10
1278.140352056753
 20
-73.67536941381857
 30
0.0
 10
1277.916420850211
 20
-73.89925755666624
 30
0.0
 10
1277.640296447069
 20
-73.89925755666624
 30
0.0
 10
1277.640296447069
 20
-73.89925755666624
 30
0.0
 10
1264.640314760865
 20
-73.89925755666624
 30
0.0
 10
1264.640314760865
 20
-73.89925755666624
 30
0.0
 10
1264.364190357723
 20
-73.89925755666624
 30
0.0
 10
1264.140345278568
 20
-73.67536941381857
 30
0.0
 10
1264.140345278568
 20
-73.3992450106758
 30
0.0
 10
1264.140345278568
 20
-73.3992450106758
 30
0.0
 10
1264.140345278568
 20
-60.39926332447267
 30
0.0
 10
1264.140345278568
 20
-60.39926332447267
 30
0.0
 10
1264.140345278568
 20
-60.1231389213299
 30
0.0
 10
1264.364190357723
 20
-59.89925077848222
 30
0.0
 10
1264.640314760865
 20
-59.89925077848222
 30
0.0
 10
1264.640314760865
 20
-59.89925077848222
 30
0.0
 10
1277.640296447069
 20
-59.89925077848222
 30
0.0
 10
1277.640296447069
 20
-59.89925077848222
 30
0.0
 10
1277.916420850211
 20
-59.89925077848222
 30
0.0
 10
1278.140352056753
 20
-60.1231389213299
 30
0.0
 10
1278.140352056753
 20
-60.39926332447267
 30
0.0
 10
1278.140352056753
 20
-60.39926332447267
 30
0.0
 10
1278.140352056753
 20
-73.3992450106758
 30
0.0
 10
1278.140352056753
 20
-73.3992450106758
 30
0.0
  0
SPLINE
  5
75
330
1F
100
AcDbEntity
  8
Camada 1
 62
     7
420
 16777215
370
    13
100
AcDbSpline
210
0.0
220
0.0
230
1.0
 70
    11
 71
     3
 72
    29
 73
    25
 74
     0
 42
0.0000000001
 43
0.0000000001
 12
1.0
 22
0.0
 32
0.0
 13
1.0
 23
0.0
 33
0.0
 40
0.0
 40
0.0
 40
0.0
 40
0.0
 40
1.0
 40
1.0
 40
1.0
 40
2.0
 40
2.0
 40
2.0
 40
3.0
 40
3.0
 40
3.0
 40
4.0
 40
4.0
 40
4.0
 40
5.0
 40
5.0
 40
5.0
 40
6.0
 40
6.0
 40
6.0
 40
7.0
 40
7.0
 40
7.0
 40
8.0
 40
8.0
 40
8.0
 40
8.0
 10
1278.140352056753
 20
-54.24571989610654
 30
0.0
 10
1278.140352056753
 20
-54.52184429924932
 30
0.0
 10
1277.916420850211
 20
-54.74568937840343
 30
0.0
 10
1277.640296447069
 20
-54.74568937840343
 30
0.0
 10
1277.640296447069
 20
-54.74568937840343
 30
0.0
 10
1264.640314760865
 20
-54.74568937840343
 30
0.0
 10
1264.640314760865
 20
-54.74568937840343
 30
0.0
 10
1264.364190357723
 20
-54.74568937840343
 30
0.0
 10
1264.140345278568
 20
-54.52184429924932
 30
0.0
 10
1264.140345278568
 20
-54.24571989610654
 30
0.0
 10
1264.140345278568
 20
-54.24571989610654
 30
0.0
 10
1264.140345278568
 20
-41.24573820990341
 30
0.0
 10
1264.140345278568
 20
-41.24573820990341
 30
0.0
 10
1264.140345278568
 20
-40.96957074306707
 30
0.0
 10
1264.364190357723
 20
-40.74572566391296
 30
0.0
 10
1264.640314760865
 20
-40.74572566391296
 30
0.0
 10
1264.640314760865
 20
-40.74572566391296
 30
0.0
 10
1277.640296447069
 20
-40.74572566391296
 30
0.0
 10
1277.640296447069
 20
-40.74572566391296
 30
0.0
 10
1277.916420850211
 20
-40.74572566391296
 30
0.0
 10
1278.140352056753
 20
-40.96957074306707
 30
0.0
 10
1278.140352056753
 20
-41.24573820990341
 30
0.0
 10
1278.140352056753
 20
-41.24573820990341
 30
0.0
 10
1278.140352056753
 20
-54.24571989610654
 30
0.0
 10
1278.140352056753
 20
-54.24571989610654
 30
0.0
  0
SPLINE
  5
76
330
1F
100
AcDbEntity
  8
Camada 1
 62
     7
420
 16777215
370
    13
100
AcDbSpline
210
0.0
220
0.0
230
1.0
 70
    11
 71
     3
 72
    29
 73
    25
 74
     0
 42
0.0000000001
 43
0.0000000001
 12
1.0
 22
0.0
 32
0.0
 13
1.0
 23
0.0
 33
0.0
 40
0.0
 40
0.0
 40
0.0
 40
0.0
 40
1.0
 40
1.0
 40
1.0
 40
2.0
 40
2.0
 40
2.0
 40
3.0
 40
3.0
 40
3.0
 40
4.0
 40
4.0
 40
4.0
 40
5.0
 40
5.0
 40
5.0
 40
6.0
 40
6.0
 40
6.0
 40
7.0
 40
7.0
 40
7.0
 40
8.0
 40
8.0
 40
8.0
 40
8.0
 10
1278.140352056753
 20
-35.10944179081032
 30
0.0
 10
1278.140352056753
 20
-35.38558772579987
 30
0.0
 10
1277.916420850211
 20
-35.60943280495398
 30
0.0
 10
1277.640296447069
 20
-35.60943280495398
 30
0.0
 10
1277.640296447069
 20
-35.60943280495398
 30
0.0
 10
1264.640314760865
 20
-35.60943280495398
 30
0.0
 10
1264.640314760865
 20
-35.60943280495398
 30
0.0
 10
1264.364190357723
 20
-35.60943280495398
 30
0.0
 10
1264.140345278568
 20
-35.38558772579987
 30
0.0
 10
1264.140345278568
 20
-35.10944179081032
 30
0.0
 10
1264.140345278568
 20
-35.10944179081032
 30
0.0
 10
1264.140345278568
 20
-22.1094385727604
 30
0.0
 10
1264.140345278568
 20
-22.1094385727604
 30
0.0
 10
1264.140345278568
 20
-21.83329263777085
 30
0.0
 10
1264.364190357723
 20
-21.60944755861674
 30
0.0
 10
1264.640314760865
 20
-21.60944755861674
 30
0.0
 10
1264.640314760865
 20
-21.60944755861674
 30
0.0
 10
1277.640296447069
 20
-21.60944755861674
 30
0.0
 10
1277.640296447069
 20
-21.60944755861674
 30
0.0
 10
1277.916420850211
 20
-21.60944755861674
 30
0.0
 10
1278.140352056753
 20
-21.83329263777085
 30
0.0
 10
1278.140352056753
 20
-22.1094385727604
 30
0.0
 10
1278.140352056753
 20
-22.1094385727604
 30
0.0
 10
1278.140352056753
 20
-35.10944179081032
 30
0.0
 10
1278.140352056753
 20
-35.10944179081032
 30
0.0
  0
SPLINE
  5
77
330
1F
100
AcDbEntity
  8
Camada 1
 62
     7
420
 16777215
370
    13
100
AcDbSpline
210
0.0
220
0.0
230
1.0
 70
    11
 71
     3
 72
    29
 73
    25
 74
     0
 42
0.0000000001
 43
0.0000000001
 12
1.0
 22
0.0
 32
0.0
 13
1.0
 23
0.0
 33
0.0
 40
0.0
 40
0.0
 40
0.0
 40
0.0
 40
1.0
 40
1.0
 40
1.0
 40
2.0
 40
2.0
 40
2.0
 40
3.0
 40
3.0
 40
3.0
 40
4.0
 40
4.0
 40
4.0
 40
5.0
 40
5.0
 40
5.0
 40
6.0
 40
6.0
 40
6.0
 40
7.0
 40
7.0
 40
7.0
 40
8.0
 40
8.0
 40
8.0
 40
8.0
 10
1278.140352056753
 20
-16.01917724208896
 30
0.0
 10
1278.140352056753
 20
-16.29532317707852
 30
0.0
 10
1277.916420850211
 20
-16.51916825623262
 30
0.0
 10
1277.640296447069
 20
-16.51916825623262
 30
0.0
 10
1277.640296447069
 20
-16.51916825623262
 30
0.0
 10
1264.640314760865
 20
-16.51916825623262
 30
0.0
 10
1264.640314760865
 20
-16.51916825623262
 30
0.0
 10
1264.364190357723
 20
-16.51916825623262
 30
0.0
 10
1264.140345278568
 20
-16.29532317707852
 30
0.0
 10
1264.140345278568
 20
-16.01917724208896
 30
0.0
 10
1264.140345278568
 20
-16.01917724208896
 30
0.0
 10
1264.140345278568
 20
-3.019174024039043
 30
0.0
 10
1264.140345278568
 20
-3.019174024039043
 30
0.0
 10
1264.140345278568
 20
-2.743028089049486
 30
0.0
 10
1264.364190357723
 20
-2.519183009895378
 30
0.0
 10
1264.640314760865
 20
-2.519183009895378
 30
0.0
 10
1264.640314760865
 20
-2.519183009895378
 30
0.0
 10
1277.640296447069
 20
-2.519183009895378
 30
0.0
 10
1277.640296447069
 20
-2.519183009895378
 30
0.0
 10
1277.916420850211
 20
-2.519183009895378
 30
0.0
 10
1278.140352056753
 20
-2.743028089049486
 30
0.0
 10
1278.140352056753
 20
-3.019174024039043
 30
0.0
 10
1278.140352056753
 20
-3.019174024039043
 30
0.0
 10
1278.140352056753
 20
-16.01917724208896
 30
0.0
 10
1278.140352056753
 20
-16.01917724208896
 30
0.0
  0
SPLINE
  5
78
330
1F
100
AcDbEntity
  8
Camada 1
 62
     7
420
 16777215
370
    13
100
AcDbSpline
210
0.0
220
0.0
230
1.0
 70
    11
 71
     3
 72
    17
 73
    13
 74
     0
 42
0.0000000001
 43
0.0000000001
 12
1.0
 22
0.0
 32
0.0
 13
1.0
 23
0.0
 33
0.0
 40
0.0
 40
0.0
 40
0.0
 40
0.0
 40
1.0
 40
1.0
 40
1.0
 40
2.0
 40
2.0
 40
2.0
 40
3.0
 40
3.0
 40
3.0
 40
4.0
 40
4.0
 40
4.0
 40
4.0
 10
1280.659578130342
 20
-59.60697749025234
 30
0.0
 10
1279.416932188812
 20
-59.60697749025234
 30
0.0
 10
1278.409586268925
 20
-58.59963157036528
 30
0.0
 10
1278.409586268925
 20
-57.35698562883567
 30
0.0
 10
1278.409586268925
 20
-56.11433968730605
 30
0.0
 10
1279.416932188812
 20
-55.106993767419
 30
0.0
 10
1280.659578130342
 20
-55.106993767419
 30
0.0
 10
1281.902224071871
 20
-55.106993767419
 30
0.0
 10
1282.909569991758
 20
-56.11433968730605
 30
0.0
 10
1282.909569991758
 20
-57.35698562883567
 30
0.0
 10
1282.909569991758
 20
-58.59963157036528
 30
0.0
 10
1281.902224071871
 20
-59.60697749025234
 30
0.0
 10
1280.659578130342
 20
-59.60697749025234
 30
0.0
  0
SPLINE
  5
79
330
1F
100
AcDbEntity
  8
Camada 1
 62
     7
420
 16777215
370
    13
100
AcDbSpline
210
0.0
220
0.0
230
1.0
 70
    11
 71
     3
 72
    17
 73
    13
 74
     0
 42
0.0000000001
 43
0.0000000001
 12
1.0
 22
0.0
 32
0.0
 13
1.0
 23
0.0
 33
0.0
 40
0.0
 40
0.0
 40
0.0
 40
0.0
 40
1.0
 40
1.0
 40
1.0
 40
2.0
 40
2.0
 40
2.0
 40
3.0
 40
3.0
 40
3.0
 40
4.0
 40
4.0
 40
4.0
 40
4.0
 10
1280.659578130342
 20
-21.3516898207797
 30
0.0
 10
1279.416932188812
 20
-21.3516898207797
 30
0.0
 10
1278.409586268925
 20
-20.34434390089265
 30
0.0
 10
1278.409586268925
 20
-19.10169795936303
 30
0.0
 10
1278.409586268925
 20
-17.85905201783342
 30
0.0
 10
1279.416932188812
 20
-16.85170609794636
 30
0.0
 10
1280.659578130342
 20
-16.85170609794636
 30
0.0
 10
1281.902224071871
 20
-16.85170609794636
 30
0.0
 10
1282.909569991758
 20
-17.85905201783342
 30
0.0
 10
1282.909569991758
 20
-19.10169795936303
 30
0.0
 10
1282.909569991758
 20
-20.34434390089265
 30
0.0
 10
1281.902224071871
 20
-21.3516898207797
 30
0.0
 10
1280.659578130342
 20
-21.3516898207797
 30
0.0
  0
SPLINE
  5
7A
330
1F
100
AcDbEntity
  8
Camada 1
 62
     7
420
 16777215
370
    13
100
AcDbSpline
210
0.0
220
0.0
230
1.0
 70
    11
 71
     3
 72
    29
 73
    25
 74
     0
 42
0.0000000001
 43
0.0000000001
 12
1.0
 22
0.0
 32
0.0
 13
1.0
 23
0.0
 33
0.0
 40
0.0
 40
0.0
 40
0.0
 40
0.0
 40
1.0
 40
1.0
 40
1.0
 40
2.0
 40
2.0
 40
2.0
 40
3.0
 40
3.0
 40
3.0
 40
4.0
 40
4.0
 40
4.0
 40
5.0
 40
5.0
 40
5.0
 40
6.0
 40
6.0
 40
6.0
 40
7.0
 40
7.0
 40
7.0
 40
8.0
 40
8.0
 40
8.0
 40
8.0
 10
1297.178897109502
 20
-73.3992450106758
 30
0.0
 10
1297.178897109502
 20
-73.67536941381857
 30
0.0
 10
1296.955052030347
 20
-73.89925755666624
 30
0.0
 10
1296.678927627205
 20
-73.89925755666624
 30
0.0
 10
1296.678927627205
 20
-73.89925755666624
 30
0.0
 10
1283.678859813615
 20
-73.89925755666624
 30
0.0
 10
1283.678859813615
 20
-73.89925755666624
 30
0.0
 10
1283.402735410472
 20
-73.89925755666624
 30
0.0
 10
1283.178890331317
 20
-73.67536941381857
 30
0.0
 10
1283.178890331317
 20
-73.3992450106758
 30
0.0
 10
1283.178890331317
 20
-73.3992450106758
 30
0.0
 10
1283.178890331317
 20
-60.39926332447267
 30
0.0
 10
1283.178890331317
 20
-60.39926332447267
 30
0.0
 10
1283.178890331317
 20
-60.1231389213299
 30
0.0
 10
1283.402735410472
 20
-59.89925077848222
 30
0.0
 10
1283.678859813615
 20
-59.89925077848222
 30
0.0
 10
1283.678859813615
 20
-59.89925077848222
 30
0.0
 10
1296.678927627205
 20
-59.89925077848222
 30
0.0
 10
1296.678927627205
 20
-59.89925077848222
 30
0.0
 10
1296.955052030347
 20
-59.89925077848222
 30
0.0
 10
1297.178897109502
 20
-60.1231389213299
 30
0.0
 10
1297.178897109502
 20
-60.39926332447267
 30
0.0
 10
1297.178897109502
 20
-60.39926332447267
 30
0.0
 10
1297.178897109502
 20
-73.3992450106758
 30
0.0
 10
1297.178897109502
 20
-73.3992450106758
 30
0.0
  0
SPLINE
  5
7B
330
1F
100
AcDbEntity
  8
Camada 1
 62
     7
420
 16777215
370
    13
100
AcDbSpline
210
0.0
220
0.0
230
1.0
 70
    11
 71
     3
 72
    29
 73
    25
 74
     0
 42
0.0000000001
 43
0.0000000001
 12
1.0
 22
0.0
 32
0.0
 13
1.0
 23
0.0
 33
0.0
 40
0.0
 40
0.0
 40
0.0
 40
0.0
 40
1.0
 40
1.0
 40
1.0
 40
2.0
 40
2.0
 40
2.0
 40
3.0
 40
3.0
 40
3.0
 40
4.0
 40
4.0
 40
4.0
 40
5.0
 40
5.0
 40
5.0
 40
6.0
 40
6.0
 40
6.0
 40
7.0
 40
7.0
 40
7.0
 40
8.0
 40
8.0
 40
8.0
 40
8.0
 10
1297.178897109502
 20
-54.24571989610654
 30
0.0
 10
1297.178897109502
 20
-54.52184429924932
 30
0.0
 10
1296.955052030347
 20
-54.74568937840343
 30
0.0
 10
1296.678927627205
 20
-54.74568937840343
 30
0.0
 10
1296.678927627205
 20
-54.74568937840343
 30
0.0
 10
1283.678859813615
 20
-54.74568937840343
 30
0.0
 10
1283.678859813615
 20
-54.74568937840343
 30
0.0
 10
1283.402735410472
 20
-54.74568937840343
 30
0.0
 10
1283.178890331317
 20
-54.52184429924932
 30
0.0
 10
1283.178890331317
 20
-54.24571989610654
 30
0.0
 10
1283.178890331317
 20
-54.24571989610654
 30
0.0
 10
1283.178890331317
 20
-41.24573820990341
 30
0.0
 10
1283.178890331317
 20
-41.24573820990341
 30
0.0
 10
1283.178890331317
 20
-40.96957074306707
 30
0.0
 10
1283.402735410472
 20
-40.74572566391296
 30
0.0
 10
1283.678859813615
 20
-40.74572566391296
 30
0.0
 10
1283.678859813615
 20
-40.74572566391296
 30
0.0
 10
1296.678927627205
 20
-40.74572566391296
 30
0.0
 10
1296.678927627205
 20
-40.74572566391296
 30
0.0
 10
1296.955052030347
 20
-40.74572566391296
 30
0.0
 10
1297.178897109502
 20
-40.96957074306707
 30
0.0
 10
1297.178897109502
 20
-41.24573820990341
 30
0.0
 10
1297.178897109502
 20
-41.24573820990341
 30
0.0
 10
1297.178897109502
 20
-54.24571989610654
 30
0.0
 10
1297.178897109502
 20
-54.24571989610654
 30
0.0
  0
SPLINE
  5
7C
330
1F
100
AcDbEntity
  8
Camada 1
 62
     7
420
 16777215
370
    13
100
AcDbSpline
210
0.0
220
0.0
230
1.0
 70
    11
 71
     3
 72
    29
 73
    25
 74
     0
 42
0.0000000001
 43
0.0000000001
 12
1.0
 22
0.0
 32
0.0
 13
1.0
 23
0.0
 33
0.0
 40
0.0
 40
0.0
 40
0.0
 40
0.0
 40
1.0
 40
1.0
 40
1.0
 40
2.0
 40
2.0
 40
2.0
 40
3.0
 40
3.0
 40
3.0
 40
4.0
 40
4.0
 40
4.0
 40
5.0
 40
5.0
 40
5.0
 40
6.0
 40
6.0
 40
6.0
 40
7.0
 40
7.0
 40
7.0
 40
8.0
 40
8.0
 40
8.0
 40
8.0
 10
1297.178897109502
 20
-35.10944179081032
 30
0.0
 10
1297.178897109502
 20
-35.38558772579987
 30
0.0
 10
1296.955052030347
 20
-35.60943280495398
 30
0.0
 10
1296.678927627205
 20
-35.60943280495398
 30
0.0
 10
1296.678927627205
 20
-35.60943280495398
 30
0.0
 10
1283.678859813615
 20
-35.60943280495398
 30
0.0
 10
1283.678859813615
 20
-35.60943280495398
 30
0.0
 10
1283.402735410472
 20
-35.60943280495398
 30
0.0
 10
1283.178890331317
 20
-35.38558772579987
 30
0.0
 10
1283.178890331317
 20
-35.10944179081032
 30
0.0
 10
1283.178890331317
 20
-35.10944179081032
 30
0.0
 10
1283.178890331317
 20
-22.1094385727604
 30
0.0
 10
1283.178890331317
 20
-22.1094385727604
 30
0.0
 10
1283.178890331317
 20
-21.83329263777085
 30
0.0
 10
1283.402735410472
 20
-21.60944755861674
 30
0.0
 10
1283.678859813615
 20
-21.60944755861674
 30
0.0
 10
1283.678859813615
 20
-21.60944755861674
 30
0.0
 10
1296.678927627205
 20
-21.60944755861674
 30
0.0
 10
1296.678927627205
 20
-21.60944755861674
 30
0.0
 10
1296.955052030347
 20
-21.60944755861674
 30
0.0
 10
1297.178897109502
 20
-21.83329263777085
 30
0.0
 10
1297.178897109502
 20
-22.1094385727604
 30
0.0
 10
1297.178897109502
 20
-22.1094385727604
 30
0.0
 10
1297.178897109502
 20
-35.10944179081032
 30
0.0
 10
1297.178897109502
 20
-35.10944179081032
 30
0.0
  0
SPLINE
  5
7D
330
1F
100
AcDbEntity
  8
Camada 1
 62
     7
420
 16777215
370
    13
100
AcDbSpline
210
0.0
220
0.0
230
1.0
 70
    11
 71
     3
 72
    29
 73
    25
 74
     0
 42
0.0000000001
 43
0.0000000001
 12
1.0
 22
0.0
 32
0.0
 13
1.0
 23
0.0
 33
0.0
 40
0.0
 40
0.0
 40
0.0
 40
0.0
 40
1.0
 40
1.0
 40
1.0
 40
2.0
 40
2.0
 40
2.0
 40
3.0
 40
3.0
 40
3.0
 40
4.0
 40
4.0
 40
4.0
 40
5.0
 40
5.0
 40
5.0
 40
6.0
 40
6.0
 40
6.0
 40
7.0
 40
7.0
 40
7.0
 40
8.0
 40
8.0
 40
8.0
 40
8.0
 10
1297.178897109502
 20
-16.01917724208896
 30
0.0
 10
1297.178897109502
 20
-16.29532317707852
 30
0.0
 10
1296.955052030347
 20
-16.51916825623262
 30
0.0
 10
1296.678927627205
 20
-16.51916825623262
 30
0.0
 10
1296.678927627205
 20
-16.51916825623262
 30
0.0
 10
1283.678859813615
 20
-16.51916825623262
 30
0.0
 10
1283.678859813615
 20
-16.51916825623262
 30
0.0
 10
1283.402735410472
 20
-16.51916825623262
 30
0.0
 10
1283.178890331317
 20
-16.29532317707852
 30
0.0
 10
1283.178890331317
 20
-16.01917724208896
 30
0.0
 10
1283.178890331317
 20
-16.01917724208896
 30
0.0
 10
1283.178890331317
 20
-3.019174024039043
 30
0.0
 10
1283.178890331317
 20
-3.019174024039043
 30
0.0
 10
1283.178890331317
 20
-2.743028089049486
 30
0.0
 10
1283.402735410472
 20
-2.519183009895378
 30
0.0
 10
1283.678859813615
 20
-2.519183009895378
 30
0.0
 10
1283.678859813615
 20
-2.519183009895378
 30
0.0
 10
1296.678927627205
 20
-2.519183009895378
 30
0.0
 10
1296.678927627205
 20
-2.519183009895378
 30
0.0
 10
1296.955052030347
 20
-2.519183009895378
 30
0.0
 10
1297.178897109502
 20
-2.743028089049486
 30
0.0
 10
1297.178897109502
 20
-3.019174024039043
 30
0.0
 10
1297.178897109502
 20
-3.019174024039043
 30
0.0
 10
1297.178897109502
 20
-16.01917724208896
 30
0.0
 10
1297.178897109502
 20
-16.01917724208896
 30
0.0
  0
ENDSEC
  0
SECTION
  2
OBJECTS
  0
DICTIONARY
  5
C
330
0
100
AcDbDictionary
281
     1
  3
ACAD_GROUP
350
D
  3
ACAD_LAYOUT
350
1A
  3
ACAD_MATERIAL
350
3B
  3
ACAD_MLEADERSTYLE
350
7F
  3
ACAD_MLINESTYLE
350
17
  3
ACAD_PLOTSETTINGS
350
19
  3
ACAD_PLOTSTYLENAME
350
E
  3
ACAD_TABLESTYLE
350
7E
  3
ACAD_VISUALSTYLE
350
2A
  0
SUN
  5
3F
330
29
100
AcDbSun
 90
        1
290
     0
 63
     7
421
 16777215
 40
1.0
291
     1
 91
  2455826
 92
 54000000
292
     0
 70
     2
 71
   256
280
     1
  0
DICTIONARY
  5
D
102
{ACAD_REACTORS
330
C
102
}
330
C
100
AcDbDictionary
281
     1
  0
DICTIONARY
  5
1A
102
{ACAD_REACTORS
330
C
102
}
330
C
100
AcDbDictionary
281
     1
  3
Layout1
350
1E
  3
Layout2
350
26
  3
Model
350
22
  0
DICTIONARY
  5
3B
102
{ACAD_REACTORS
330
C
102
}
330
C
100
AcDbDictionary
281
     1
  3
ByBlock
350
3D
  3
ByLayer
350
3C
  3
Global
350
3E
  0
DICTIONARY
  5
7F
102
{ACAD_REACTORS
330
C
102
}
330
C
100
AcDbDictionary
281
     1
  0
DICTIONARY
  5
17
102
{ACAD_REACTORS
330
C
102
}
330
C
100
AcDbDictionary
281
     1
  3
Standard
350
18
  0
DICTIONARY
  5
19
102
{ACAD_REACTORS
330
C
102
}
330
C
100
AcDbDictionary
281
     1
  0
ACDBDICTIONARYWDFLT
  5
E
102
{ACAD_REACTORS
330
C
102
}
330
C
100
AcDbDictionary
281
     1
  3
Normal
350
F
100
AcDbDictionaryWithDefault
340
F
  0
DICTIONARY
  5
7E
102
{ACAD_REACTORS
330
C
102
}
330
C
100
AcDbDictionary
281
     1
  0
DICTIONARY
  5
2A
102
{ACAD_REACTORS
330
C
102
}
330
C
100
AcDbDictionary
281
     1
  3
2dWireframe
350
2F
  3
3D Hidden
350
31
  3
3dWireframe
350
30
  3
Basic
350
32
  3
Brighten
350
36
  3
ColorChange
350
3A
  3
Conceptual
350
34
  3
Dim
350
35
  3
Facepattern
350
39
  3
Flat
350
2B
  3
FlatWithEdges
350
2C
  3
Gouraud
350
2D
  3
GouraudWithEdges
350
2E
  3
Linepattern
350
38
  3
Realistic
350
33
  3
Thicken
350
37
  0
LAYOUT
  5
1E
102
{ACAD_REACTORS
330
1A
102
}
330
1A
100
AcDbPlotSettings
  1

  2
none_device
  4

  6

 40
0.0
 41
0.0
 42
0.0
 43
0.0
 44
0.0
 45
0.0
 46
0.0
 47
0.0
 48
0.0
 49
0.0
140
0.0
141
0.0
142
1.0
143
1.0
 70
   688
 72
     0
 73
     0
 74
     5
  7

 75
    16
 76
     0
 77
     2
 78
   300
147
1.0
148
0.0
149
0.0
100
AcDbLayout
  1
Layout1
 70
     1
 71
     1
 10
0.0
 20
0.0
 11
12.0
 21
9.0
 12
0.0
 22
0.0
 32
0.0
 14
1.000000000000000E+20
 24
1.000000000000000E+20
 34
1.000000000000000E+20
 15
-1.000000000000000E+20
 25
-1.000000000000000E+20
 35
-1.000000000000000E+20
146
0.0
 13
0.0
 23
0.0
 33
0.0
 16
1.0
 26
0.0
 36
0.0
 17
0.0
 27
1.0
 37
0.0
 76
     0
330
1B
  0
LAYOUT
  5
26
102
{ACAD_REACTORS
330
1A
102
}
330
1A
100
AcDbPlotSettings
  1

  2
none_device
  4

  6

 40
0.0
 41
0.0
 42
0.0
 43
0.0
 44
0.0
 45
0.0
 46
0.0
 47
0.0
 48
0.0
 49
0.0
140
0.0
141
0.0
142
1.0
143
1.0
 70
   688
 72
     0
 73
     0
 74
     5
  7

 75
    16
 76
     0
 77
     2
 78
   300
147
1.0
148
0.0
149
0.0
100
AcDbLayout
  1
Layout2
 70
     1
 71
     2
 10
0.0
 20
0.0
 11
0.0
 21
0.0
 12
0.0
 22
0.0
 32
0.0
 14
0.0
 24
0.0
 34
0.0
 15
0.0
 25
0.0
 35
0.0
146
0.0
 13
0.0
 23
0.0
 33
0.0
 16
1.0
 26
0.0
 36
0.0
 17
0.0
 27
1.0
 37
0.0
 76
     0
330
23
  0
LAYOUT
  5
22
102
{ACAD_REACTORS
330
1A
102
}
330
1A
100
AcDbPlotSettings
  1

  2
none_device
  4

  6

 40
0.0
 41
0.0
 42
0.0
 43
0.0
 44
0.0
 45
0.0
 46
0.0
 47
0.0
 48
0.0
 49
0.0
140
0.0
141
0.0
142
1.0
143
1.0
 70
  1712
 72
     0
 73
     0
 74
     0
  7

 75
     0
 76
     0
 77
     2
 78
   300
147
1.0
148
0.0
149
0.0
100
AcDbLayout
  1
Model
 70
     1
 71
     0
 10
0.0
 20
0.0
 11
12.0
 21
9.0
 12
0.0
 22
0.0
 32
0.0
 14
1.000000000000000E+20
 24
1.000000000000000E+20
 34
1.000000000000000E+20
 15
-1.000000000000000E+20
 25
-1.000000000000000E+20
 35
-1.000000000000000E+20
146
0.0
 13
0.0
 23
0.0
 33
0.0
 16
1.0
 26
0.0
 36
0.0
 17
0.0
 27
1.0
 37
0.0
 76
     0
330
1F
331
29
  0
MATERIAL
  5
3D
102
{ACAD_REACTORS
330
3B
102
}
330
3B
100
AcDbMaterial
  1
ByBlock
 72
     1
 94
      127
  0
MATERIAL
  5
3C
102
{ACAD_REACTORS
330
3B
102
}
330
3B
100
AcDbMaterial
  1
ByLayer
 72
     1
 94
      127
  0
MATERIAL
  5
3E
102
{ACAD_REACTORS
330
3B
102
}
330
3B
100
AcDbMaterial
  1
Global
 72
     1
 94
      127
  0
MLINESTYLE
  5
18
102
{ACAD_REACTORS
330
17
102
}
330
17
100
AcDbMlineStyle
  2
Standard
 70
     0
  3

 62
   256
 51
90.0
 52
90.0
 71
     2
 49
0.5
 62
   256
  6
BYLAYER
 49
-0.5
 62
   256
  6
BYLAYER
  0
ACDBPLACEHOLDER
  5
F
102
{ACAD_REACTORS
330
E
102
}
330
E
  0
VISUALSTYLE
  5
2F
102
{ACAD_REACTORS
330
2A
102
}
330
2A
100
AcDbVisualStyle
  2
2dWireframe
 70
     4
177
     2
291
     0
 71
     0
176
     1
 72
     2
176
     1
 73
     0
176
     1
 90
        0
176
     1
 40
-0.6
176
     1
 41
-30.0
176
     1
 62
     5
 63
     7
421
 16777215
176
     1
 74
     1
176
     1
 91
        4
176
     1
 64
     7
176
     1
 65
   257
176
     1
 75
     1
176
     1
175
     1
176
     1
 42
1.0
176
     1
 92
        0
176
     1
 66
   257
176
     1
 43
1.0
176
     1
 76
     1
176
     1
 77
     6
176
     1
 78
     2
176
     1
 67
     7
176
     1
 79
     5
176
     1
170
     0
176
     1
171
     0
176
     1
290
     0
176
     1
 93
        1
176
     1
 44
0.0
176
     1
173
     0
176
     1
  0
VISUALSTYLE
  5
31
102
{ACAD_REACTORS
330
2A
102
}
330
2A
100
AcDbVisualStyle
  2
3D Hidden
 70
     6
177
     2
291
     0
 71
     1
176
     1
 72
     2
176
     1
 73
     2
176
     1
 90
        0
176
     1
 40
-0.6
176
     1
 41
-30.0
176
     1
 62
     5
 63
     7
421
 16777215
176
     1
 74
     2
176
     1
 91
        2
176
     1
 64
     7
176
     1
 65
   257
176
     1
 75
     2
176
     1
175
     1
176
     1
 42
40.0
176
     1
 92
        0
176
     1
 66
   257
176
     1
 43
1.0
176
     1
 76
     1
176
     1
 77
     6
176
     1
 78
     2
176
     1
 67
     7
176
     1
 79
     3
176
     1
170
     0
176
     1
171
     0
176
     1
290
     0
176
     1
 93
        1
176
     1
 44
0.0
176
     1
173
     0
176
     1
  0
VISUALSTYLE
  5
30
102
{ACAD_REACTORS
330
2A
102
}
330
2A
100
AcDbVisualStyle
  2
3dWireframe
 70
     5
177
     2
291
     0
 71
     0
176
     1
 72
     2
176
     1
 73
     0
176
     1
 90
        0
176
     1
 40
-0.6
176
     1
 41
-30.0
176
     1
 62
     5
 63
     7
421
 16777215
176
     1
 74
     1
176
     1
 91
        4
176
     1
 64
     7
176
     1
 65
   257
176
     1
 75
     1
176
     1
175
     1
176
     1
 42
1.0
176
     1
 92
        0
176
     1
 66
   257
176
     1
 43
1.0
176
     1
 76
     1
176
     1
 77
     6
176
     1
 78
     2
176
     1
 67
     7
176
     1
 79
     5
176
     1
170
     0
176
     1
171
     0
176
     1
290
     0
176
     1
 93
        1
176
     1
 44
0.0
176
     1
173
     0
176
     1
  0
VISUALSTYLE
  5
32
102
{ACAD_REACTORS
330
2A
102
}
330
2A
100
AcDbVisualStyle
  2
Basic
 70
     7
177
     2
291
     1
 71
     1
176
     1
 72
     0
176
     1
 73
     1
176
     1
 90
        0
176
     1
 40
-0.6
176
     1
 41
-30.0
176
     1
 62
     5
 63
     7
421
 16777215
176
     1
 74
     0
176
     1
 91
        4
176
     1
 64
     7
176
     1
 65
   257
176
     1
 75
     1
176
     1
175
     1
176
     1
 42
1.0
176
     1
 92
        8
176
     1
 66
     7
176
     1
 43
1.0
176
     1
 76
     1
176
     1
 77
     6
176
     1
 78
     2
176
     1
 67
     7
176
     1
 79
     5
176
     1
170
     0
176
     1
171
     0
176
     1
290
     0
176
     1
 93
        1
176
     1
 44
0.0
176
     1
173
     0
176
     1
  0
VISUALSTYLE
  5
36
102
{ACAD_REACTORS
330
2A
102
}
330
2A
100
AcDbVisualStyle
  2
Brighten
 70
    12
177
     2
291
     1
 71
     2
176
     1
 72
     2
176
     1
 73
     0
176
     1
 90
        0
176
     1
 40
-0.6
176
     1
 41
-30.0
176
     1
 62
     5
 63
     7
421
 16777215
176
     1
 74
     1
176
     1
 91
        4
176
     1
 64
     7
176
     1
 65
   257
176
     1
 75
     1
176
     1
175
     1
176
     1
 42
1.0
176
     1
 92
        8
176
     1
 66
     7
176
     1
 43
1.0
176
     1
 76
     1
176
     1
 77
     6
176
     1
 78
     2
176
     1
 67
     7
176
     1
 79
     5
176
     1
170
     0
176
     1
171
     0
176
     1
290
     0
176
     1
 93
        1
176
     1
 44
50.0
176
     1
173
     0
176
     1
  0
VISUALSTYLE
  5
3A
102
{ACAD_REACTORS
330
2A
102
}
330
2A
100
AcDbVisualStyle
  2
ColorChange
 70
    16
177
     2
291
     1
 71
     2
176
     1
 72
     2
176
     1
 73
     3
176
     1
 90
        0
176
     1
 40
-0.6
176
     1
 41
-30.0
176
     1
 62
     5
 63
     8
421
  8421504
176
     1
 74
     1
176
     1
 91
        4
176
     1
 64
     7
176
     1
 65
   257
176
     1
 75
     1
176
     1
175
     1
176
     1
 42
1.0
176
     1
 92
        8
176
     1
 66
     8
424
  8421504
176
     1
 43
1.0
176
     1
 76
     1
176
     1
 77
     6
176
     1
 78
     2
176
     1
 67
     7
176
     1
 79
     5
176
     1
170
     0
176
     1
171
     0
176
     1
290
     0
176
     1
 93
        1
176
     1
 44
0.0
176
     1
173
     0
176
     1
  0
VISUALSTYLE
  5
34
102
{ACAD_REACTORS
330
2A
102
}
330
2A
100
AcDbVisualStyle
  2
Conceptual
 70
     9
177
     2
291
     0
 71
     3
176
     1
 72
     2
176
     1
 73
     0
176
     1
 90
        0
176
     1
 40
-0.6
176
     1
 41
-30.0
176
     1
 62
     5
 63
     7
421
 16777215
176
     1
 74
     2
176
     1
 91
        2
176
     1
 64
     7
176
     1
 65
   257
176
     1
 75
     1
176
     1
175
     1
176
     1
 42
40.0
176
     1
 92
        8
176
     1
 66
     7
176
     1
 43
1.0
176
     1
 76
     1
176
     1
 77
     6
176
     1
 78
     2
176
     1
 67
     7
176
     1
 79
     3
176
     1
170
     0
176
     1
171
     0
176
     1
290
     0
176
     1
 93
        1
176
     1
 44
0.0
176
     1
173
     0
176
     1
  0
VISUALSTYLE
  5
35
102
{ACAD_REACTORS
330
2A
102
}
330
2A
100
AcDbVisualStyle
  2
Dim
 70
    11
177
     2
291
     1
 71
     2
176
     1
 72
     2
176
     1
 73
     0
176
     1
 90
        0
176
     1
 40
-0.6
176
     1
 41
-30.0
176
     1
 62
     5
 63
     7
421
 16777215
176
     1
 74
     1
176
     1
 91
        4
176
     1
 64
     7
176
     1
 65
   257
176
     1
 75
     1
176
     1
175
     1
176
     1
 42
1.0
176
     1
 92
        8
176
     1
 66
     7
176
     1
 43
1.0
176
     1
 76
     1
176
     1
 77
     6
176
     1
 78
     2
176
     1
 67
     7
176
     1
 79
     5
176
     1
170
     0
176
     1
171
     0
176
     1
290
     0
176
     1
 93
        1
176
     1
 44
-50.0
176
     1
173
     0
176
     1
  0
VISUALSTYLE
  5
39
102
{ACAD_REACTORS
330
2A
102
}
330
2A
100
AcDbVisualStyle
  2
Facepattern
 70
    15
177
     2
291
     1
 71
     2
176
     1
 72
     2
176
     1
 73
     0
176
     1
 90
        0
176
     1
 40
-0.6
176
     1
 41
-30.0
176
     1
 62
     5
 63
     7
421
 16777215
176
     1
 74
     1
176
     1
 91
        4
176
     1
 64
     7
176
     1
 65
   257
176
     1
 75
     1
176
     1
175
     1
176
     1
 42
1.0
176
     1
 92
        8
176
     1
 66
     7
176
     1
 43
1.0
176
     1
 76
     1
176
     1
 77
     6
176
     1
 78
     2
176
     1
 67
     7
176
     1
 79
     5
176
     1
170
     0
176
     1
171
     0
176
     1
290
     0
176
     1
 93
        1
176
     1
 44
0.0
176
     1
173
     0
176
     1
  0
VISUALSTYLE
  5
2B
102
{ACAD_REACTORS
330
2A
102
}
330
2A
100
AcDbVisualStyle
  2
Flat
 70
     0
177
     2
291
     1
 71
     2
176
     1
 72
     1
176
     1
 73
     1
176
     1
 90
        2
176
     1
 40
-0.6
176
     1
 41
30.0
176
     1
 62
     5
 63
     7
421
 16777215
176
     1
 74
     0
176
     1
 91
        4
176
     1
 64
     7
176
     1
 65
   257
176
     1
 75
     1
176
     1
175
     1
176
     1
 42
1.0
176
     1
 92
        8
176
     1
 66
     7
176
     1
 43
1.0
176
     1
 76
     1
176
     1
 77
     6
176
     1
 78
     2
176
     1
 67
     7
176
     1
 79
     5
176
     1
170
     0
176
     1
171
     0
176
     1
290
     0
176
     1
 93
       13
176
     1
 44
0.0
176
     1
173
     0
176
     1
  0
VISUALSTYLE
  5
2C
102
{ACAD_REACTORS
330
2A
102
}
330
2A
100
AcDbVisualStyle
  2
FlatWithEdges
 70
     1
177
     2
291
     1
 71
     2
176
     1
 72
     1
176
     1
 73
     1
176
     1
 90
        2
176
     1
 40
-0.6
176
     1
 41
30.0
176
     1
 62
     5
 63
     7
421
 16777215
176
     1
 74
     1
176
     1
 91
        4
176
     1
 64
     7
176
     1
 65
   257
176
     1
 75
     1
176
     1
175
     1
176
     1
 42
1.0
176
     1
 92
        0
176
     1
 66
   257
176
     1
 43
1.0
176
     1
 76
     1
176
     1
 77
     6
176
     1
 78
     2
176
     1
 67
     7
176
     1
 79
     5
176
     1
170
     0
176
     1
171
     0
176
     1
290
     0
176
     1
 93
       13
176
     1
 44
0.0
176
     1
173
     0
176
     1
  0
VISUALSTYLE
  5
2D
102
{ACAD_REACTORS
330
2A
102
}
330
2A
100
AcDbVisualStyle
  2
Gouraud
 70
     2
177
     2
291
     1
 71
     2
176
     1
 72
     2
176
     1
 73
     1
176
     1
 90
        2
176
     1
 40
-0.6
176
     1
 41
30.0
176
     1
 62
     5
 63
     7
421
 16777215
176
     1
 74
     0
176
     1
 91
        4
176
     1
 64
     7
176
     1
 65
   257
176
     1
 75
     1
176
     1
175
     1
176
     1
 42
1.0
176
     1
 92
        0
176
     1
 66
     7
176
     1
 43
1.0
176
     1
 76
     1
176
     1
 77
     6
176
     1
 78
     2
176
     1
 67
     7
176
     1
 79
     5
176
     1
170
     0
176
     1
171
     0
176
     1
290
     0
176
     1
 93
       13
176
     1
 44
0.0
176
     1
173
     0
176
     1
  0
VISUALSTYLE
  5
2E
102
{ACAD_REACTORS
330
2A
102
}
330
2A
100
AcDbVisualStyle
  2
GouraudWithEdges
 70
     3
177
     2
291
     1
 71
     2
176
     1
 72
     2
176
     1
 73
     1
176
     1
 90
        2
176
     1
 40
-0.6
176
     1
 41
30.0
176
     1
 62
     5
 63
     7
421
 16777215
176
     1
 74
     1
176
     1
 91
        4
176
     1
 64
     7
176
     1
 65
   257
176
     1
 75
     1
176
     1
175
     1
176
     1
 42
1.0
176
     1
 92
        0
176
     1
 66
   257
176
     1
 43
1.0
176
     1
 76
     1
176
     1
 77
     6
176
     1
 78
     2
176
     1
 67
     7
176
     1
 79
     5
176
     1
170
     0
176
     1
171
     0
176
     1
290
     0
176
     1
 93
       13
176
     1
 44
0.0
176
     1
173
     0
176
     1
  0
VISUALSTYLE
  5
38
102
{ACAD_REACTORS
330
2A
102
}
330
2A
100
AcDbVisualStyle
  2
Linepattern
 70
    14
177
     2
291
     1
 71
     2
176
     1
 72
     2
176
     1
 73
     0
176
     1
 90
        0
176
     1
 40
-0.6
176
     1
 41
-30.0
176
     1
 62
     5
 63
     7
421
 16777215
176
     1
 74
     1
176
     1
 91
        4
176
     1
 64
     7
176
     1
 65
   257
176
     1
 75
     7
176
     1
175
     7
176
     1
 42
1.0
176
     1
 92
        8
176
     1
 66
     7
176
     1
 43
1.0
176
     1
 76
     1
176
     1
 77
     6
176
     1
 78
     2
176
     1
 67
     7
176
     1
 79
     5
176
     1
170
     0
176
     1
171
     0
176
     1
290
     0
176
     1
 93
        1
176
     1
 44
0.0
176
     1
173
     0
176
     1
  0
VISUALSTYLE
  5
33
102
{ACAD_REACTORS
330
2A
102
}
330
2A
100
AcDbVisualStyle
  2
Realistic
 70
     8
177
     2
291
     0
 71
     2
176
     1
 72
     2
176
     1
 73
     0
176
     1
 90
        0
176
     1
 40
-0.6
176
     1
 41
-30.0
176
     1
 62
     5
 63
     7
421
 16777215
176
     1
 74
     1
176
     1
 91
        0
176
     1
 64
     7
176
     1
 65
   257
176
     1
 75
     1
176
     1
175
     1
176
     1
 42
1.0
176
     1
 92
        8
176
     1
 66
     8
424
  7895160
176
     1
 43
1.0
176
     1
 76
     1
176
     1
 77
     6
176
     1
 78
     2
176
     1
 67
     7
176
     1
 79
     5
176
     1
170
     0
176
     1
171
     0
176
     1
290
     0
176
     1
 93
       13
176
     1
 44
0.0
176
     1
173
     0
176
     1
  0
VISUALSTYLE
  5
37
102
{ACAD_REACTORS
330
2A
102
}
330
2A
100
AcDbVisualStyle
  2
Thicken
 70
    13
177
     2
291
     1
 71
     2
176
     1
 72
     2
176
     1
 73
     0
176
     1
 90
        0
176
     1
 40
-0.6
176
     1
 41
-30.0
176
     1
 62
     5
 63
     7
421
 16777215
176
     1
 74
     1
176
     1
 91
        4
176
     1
 64
     7
176
     1
 65
   257
176
     1
 75
     1
176
     1
175
     1
176
     1
 42
1.0
176
     1
 92
       12
176
     1
 66
     7
176
     1
 43
1.0
176
     1
 76
     1
176
     1
 77
     6
176
     1
 78
     2
176
     1
 67
     7
176
     1
 79
     5
176
     1
170
     0
176
     1
171
     0
176
     1
290
     0
176
     1
 93
        1
176
     1
 44
0.0
176
     1
173
     0
176
     1
  0
ENDSEC
  0
EOF
